<svg width="161" height="15" viewBox="0 0 161 15" fill="none" xmlns="http://www.w3.org/2000/svg">
<path d="M3.39418 14L4.36577 11.0149H9.08949L10.0611 14H13.027L8.5142 0.909091H4.94744L0.428267 14H3.39418ZM5.06889 8.8544L6.67969 3.90057H6.78196L8.39276 8.8544H5.06889ZM15.2578 14H18.1342L19.8217 7.82528H19.9432L21.6307 14H24.5135L27.179 4.18182H24.4304L22.9347 10.7401H22.8516L21.2408 4.18182H18.5369L16.9517 10.7784H16.8622L15.3409 4.18182H12.5859L15.2578 14ZM31.4313 14.1854C32.8823 14.1854 33.8219 13.5526 34.3013 12.6385H34.378V14H36.9604V7.37784C36.9604 5.03835 34.9789 4.05398 32.7928 4.05398C30.4405 4.05398 28.8936 5.17898 28.5165 6.96875L31.035 7.1733C31.2203 6.52131 31.802 6.0419 32.78 6.0419C33.7069 6.0419 34.2374 6.50852 34.2374 7.31392V7.35227C34.2374 7.98509 33.5662 8.06818 31.8596 8.23438C29.9164 8.41335 28.1713 9.06534 28.1713 11.2578C28.1713 13.201 29.5584 14.1854 31.4313 14.1854ZM32.2111 12.3061C31.3738 12.3061 30.7729 11.9162 30.7729 11.1683C30.7729 10.4013 31.4057 10.0241 32.3645 9.88991C32.959 9.80682 33.9306 9.66619 34.2566 9.44886V10.4908C34.2566 11.5199 33.4064 12.3061 32.2111 12.3061ZM41.796 0.909091H39.073V14H41.796V0.909091ZM55.296 4.67401H57.9487C57.9103 2.34091 55.9927 0.730113 53.0779 0.730113C50.2079 0.730113 48.1049 2.31534 48.1177 4.69318C48.1113 6.62358 49.4728 7.7294 51.6845 8.25994L53.1099 8.6179C54.5353 8.96307 55.3279 9.37216 55.3343 10.2543C55.3279 11.2131 54.4203 11.8651 53.014 11.8651C51.5758 11.8651 50.5403 11.2003 50.4508 9.88991H47.7725C47.8429 12.7216 49.8691 14.1854 53.046 14.1854C56.242 14.1854 58.1213 12.6577 58.1277 10.2607C58.1213 8.08097 56.4785 6.92401 54.2029 6.41264L53.0268 6.13139C51.889 5.86932 50.9366 5.44744 50.9558 4.50781C50.9558 3.66406 51.7037 3.04403 53.0588 3.04403C54.3819 3.04403 55.1937 3.64489 55.296 4.67401ZM62.7379 14.1854C64.1889 14.1854 65.1286 13.5526 65.608 12.6385H65.6847V14H68.267V7.37784C68.267 5.03835 66.2855 4.05398 64.0994 4.05398C61.7472 4.05398 60.2003 5.17898 59.8232 6.96875L62.3416 7.1733C62.527 6.52131 63.1087 6.0419 64.0866 6.0419C65.0135 6.0419 65.544 6.50852 65.544 7.31392V7.35227C65.544 7.98509 64.8729 8.06818 63.1662 8.23438C61.223 8.41335 59.478 9.06534 59.478 11.2578C59.478 13.201 60.8651 14.1854 62.7379 14.1854ZM63.5178 12.3061C62.6804 12.3061 62.0795 11.9162 62.0795 11.1683C62.0795 10.4013 62.7124 10.0241 63.6712 9.88991C64.2656 9.80682 65.2372 9.66619 65.5632 9.44886V10.4908C65.5632 11.5199 64.7131 12.3061 63.5178 12.3061ZM73.1026 0.909091H70.3796V14H73.1026V0.909091ZM78.9018 14.1598C80.487 14.1598 81.3116 13.2457 81.6887 12.4276H81.8038V14H84.4885V0.909091H81.7718V5.83097H81.6887C81.3244 5.03196 80.5382 4.05398 78.8954 4.05398C76.7413 4.05398 74.9196 5.72869 74.9196 9.10369C74.9196 12.3892 76.6646 14.1598 78.9018 14.1598ZM79.7647 11.9929C78.4288 11.9929 77.7001 10.804 77.7001 9.09091C77.7001 7.39062 78.416 6.22088 79.7647 6.22088C81.0879 6.22088 81.8294 7.33949 81.8294 9.09091C81.8294 10.8423 81.0751 11.9929 79.7647 11.9929ZM91.1634 14.1918C94.142 14.1918 95.9957 12.1527 95.9957 9.12926C95.9957 6.08665 94.142 4.05398 91.1634 4.05398C88.1847 4.05398 86.331 6.08665 86.331 9.12926C86.331 12.1527 88.1847 14.1918 91.1634 14.1918ZM91.1761 12.0824C89.8018 12.0824 89.0987 10.8232 89.0987 9.11009C89.0987 7.39702 89.8018 6.13139 91.1761 6.13139C92.5249 6.13139 93.228 7.39702 93.228 9.11009C93.228 10.8232 92.5249 12.0824 91.1761 12.0824ZM104.24 14L105.211 11.0149H109.935L110.907 14H113.873L109.36 0.909091H105.793L101.274 14H104.24ZM105.915 8.8544L107.525 3.90057H107.628L109.238 8.8544H105.915ZM118.12 8.32386C118.127 7.05824 118.881 6.31676 119.98 6.31676C121.073 6.31676 121.732 7.03267 121.725 8.23438V14H124.448V7.74858C124.448 5.46023 123.106 4.05398 121.061 4.05398C119.603 4.05398 118.548 4.76989 118.107 5.91406H117.992V4.18182H115.397V14H118.12V8.32386ZM130.212 14.1598C131.798 14.1598 132.622 13.2457 132.999 12.4276H133.114V14H135.799V0.909091H133.082V5.83097H132.999C132.635 5.03196 131.849 4.05398 130.206 4.05398C128.052 4.05398 126.23 5.72869 126.23 9.10369C126.23 12.3892 127.975 14.1598 130.212 14.1598ZM131.075 11.9929C129.739 11.9929 129.011 10.804 129.011 9.09091C129.011 7.39062 129.727 6.22088 131.075 6.22088C132.398 6.22088 133.14 7.33949 133.14 9.09091C133.14 10.8423 132.386 11.9929 131.075 11.9929ZM140.838 14.1854C142.289 14.1854 143.228 13.5526 143.708 12.6385H143.784V14H146.367V7.37784C146.367 5.03835 144.385 4.05398 142.199 4.05398C139.847 4.05398 138.3 5.17898 137.923 6.96875L140.441 7.1733C140.627 6.52131 141.208 6.0419 142.186 6.0419C143.113 6.0419 143.644 6.50852 143.644 7.31392V7.35227C143.644 7.98509 142.972 8.06818 141.266 8.23438C139.323 8.41335 137.578 9.06534 137.578 11.2578C137.578 13.201 138.965 14.1854 140.838 14.1854ZM141.617 12.3061C140.78 12.3061 140.179 11.9162 140.179 11.1683C140.179 10.4013 140.812 10.0241 141.771 9.88991C142.365 9.80682 143.337 9.66619 143.663 9.44886V10.4908C143.663 11.5199 142.813 12.3061 141.617 12.3061ZM154.985 10.0753H157.407V9.85795C157.42 8.61151 157.868 8.02983 158.877 7.42259C160.073 6.71307 160.853 5.77344 160.853 4.27131C160.853 2.03409 159.05 0.730113 156.512 0.730113C154.192 0.730113 152.3 1.9446 152.243 4.50142H154.85C154.889 3.45952 155.662 2.90341 156.5 2.90341C157.363 2.90341 158.059 3.47869 158.059 4.36719C158.059 5.20455 157.452 5.76065 156.666 6.25923C155.592 6.93679 154.991 7.62074 154.985 9.85795V10.0753ZM156.244 14.1662C157.062 14.1662 157.772 13.4822 157.778 12.6321C157.772 11.7947 157.062 11.1108 156.244 11.1108C155.4 11.1108 154.703 11.7947 154.71 12.6321C154.703 13.4822 155.4 14.1662 156.244 14.1662Z" fill="#7080B3"/>
</svg>
