<svg width="85" height="29" viewBox="0 0 85 29" fill="none" xmlns="http://www.w3.org/2000/svg">
<path d="M5.02005 0.818182V7.91761C5.01508 8.89702 4.57758 9.41406 3.78212 9.41406C3.03141 9.41406 2.54419 8.94673 2.52928 8.13636H0.386524C0.376581 10.1697 1.82829 11.1392 3.67275 11.1392C5.73596 11.1392 7.14292 9.89134 7.14789 7.91761V0.818182H5.02005ZM18.6114 4.38281C18.328 2.03125 16.5482 0.678977 14.1916 0.678977C11.502 0.678977 9.44874 2.57812 9.44874 5.90909C9.44874 9.23011 11.4672 11.1392 14.1916 11.1392C16.8017 11.1392 18.3777 9.40412 18.6114 7.52983L16.4338 7.51989C16.23 8.60866 15.3749 9.23509 14.2264 9.23509C12.6803 9.23509 11.6313 8.08665 11.6313 5.90909C11.6313 3.79119 12.6654 2.5831 14.2414 2.5831C15.4196 2.5831 16.2698 3.2642 16.4338 4.38281H18.6114ZM25.5731 5.06889H20.9296V6.74929H25.5731V5.06889ZM31.7269 11C34.8292 11 36.7085 9.08097 36.7085 5.89915C36.7085 2.72727 34.8292 0.818182 31.7568 0.818182H28.1176V11H31.7269ZM30.2703 9.15554V2.66264H31.6424C33.5515 2.66264 34.5607 3.63707 34.5607 5.89915C34.5607 8.17116 33.5515 9.15554 31.6374 9.15554H30.2703ZM42.4136 11.1491C44.7304 11.1491 46.1721 9.56321 46.1721 7.21165C46.1721 4.84517 44.7304 3.2642 42.4136 3.2642C40.0969 3.2642 38.6551 4.84517 38.6551 7.21165C38.6551 9.56321 40.0969 11.1491 42.4136 11.1491ZM42.4236 9.50852C41.3547 9.50852 40.8078 8.52912 40.8078 7.19673C40.8078 5.86435 41.3547 4.87997 42.4236 4.87997C43.4726 4.87997 44.0194 5.86435 44.0194 7.19673C44.0194 8.52912 43.4726 9.50852 42.4236 9.50852ZM48.2493 11H50.3672V6.41619C50.3672 5.57102 50.9041 5.00923 51.6101 5.00923C52.3061 5.00923 52.7734 5.48651 52.7734 6.23722V11H54.8267V6.33665C54.8267 5.54616 55.2791 5.00923 56.0497 5.00923C56.7258 5.00923 57.2329 5.43182 57.2329 6.28196V11H59.3459V5.86435C59.3459 4.20881 58.3615 3.2642 56.9396 3.2642C55.821 3.2642 54.951 3.83594 54.6378 4.71094H54.5582C54.3146 3.82599 53.5341 3.2642 52.4851 3.2642C51.4559 3.2642 50.6754 3.81108 50.3572 4.71094H50.2677V3.36364H48.2493V11ZM61.7188 13.8636H63.8367V9.77699H63.9013C64.1947 10.4134 64.836 11.1243 66.0689 11.1243C67.809 11.1243 69.1662 9.74716 69.1662 7.19176C69.1662 4.56676 67.7493 3.2642 66.0739 3.2642C64.7962 3.2642 64.1847 4.02486 63.9013 4.64631H63.8069V3.36364H61.7188V13.8636ZM63.792 7.18182C63.792 5.8196 64.3687 4.94957 65.3978 4.94957C66.4468 4.94957 67.0036 5.85938 67.0036 7.18182C67.0036 8.5142 66.4368 9.43892 65.3978 9.43892C64.3786 9.43892 63.792 8.54403 63.792 7.18182ZM74.7583 11.1491C76.6475 11.1491 77.9202 10.2294 78.2185 8.8125L76.2597 8.68324C76.0459 9.26491 75.4991 9.56818 74.7931 9.56818C73.7342 9.56818 73.063 8.86719 73.063 7.72869V7.72372H78.2633V7.14205C78.2633 4.54688 76.6922 3.2642 74.6738 3.2642C72.4266 3.2642 70.9699 4.86009 70.9699 7.21662C70.9699 9.63778 72.4067 11.1491 74.7583 11.1491ZM73.063 6.41122C73.1077 5.54119 73.769 4.84517 74.7086 4.84517C75.6283 4.84517 76.2647 5.50142 76.2697 6.41122H73.063ZM84.4072 3.36364H82.9704V1.53409H80.8525V3.36364H79.8084V4.95455H80.8525V8.93182C80.8425 10.4283 81.8617 11.169 83.3979 11.1044C83.9448 11.0845 84.3326 10.9751 84.5464 10.9055L84.2133 9.32955C84.1089 9.34943 83.8851 9.39915 83.6863 9.39915C83.2637 9.39915 82.9704 9.24006 82.9704 8.65341V4.95455H84.4072V3.36364ZM20.7443 28C23.8466 28 25.7259 26.081 25.7259 22.8991C25.7259 19.7273 23.8466 17.8182 20.7741 17.8182H17.1349V28H20.7443ZM19.2876 26.1555V19.6626H20.6598C22.5689 19.6626 23.5781 20.6371 23.5781 22.8991C23.5781 25.1712 22.5689 26.1555 20.6548 26.1555H19.2876ZM30.0986 23.5852C30.1036 22.6009 30.7051 22.0241 31.5702 22.0241C32.4303 22.0241 32.9374 22.576 32.9324 23.5156V28H35.0503V23.1378C35.0553 21.348 34.0013 20.2642 32.4104 20.2642C31.252 20.2642 30.4765 20.8111 30.1284 21.7109H30.039V17.8182H27.9807V28H30.0986V23.5852ZM42.3141 24.7486C42.319 25.7727 41.618 26.3097 40.8574 26.3097C40.057 26.3097 39.5399 25.7479 39.5349 24.848V20.3636H37.417V25.2259C37.422 27.0107 38.4661 28.0994 40.0023 28.0994C41.1507 28.0994 41.976 27.5078 42.319 26.6129H42.3986V28H44.432V20.3636H42.3141V24.7486ZM49.0036 28.1442C50.1321 28.1442 50.863 27.652 51.2358 26.9411H51.2955V28H53.304V22.8494C53.304 21.0298 51.7628 20.2642 50.0625 20.2642C48.233 20.2642 47.0299 21.1392 46.7365 22.5312L48.6953 22.6903C48.8395 22.1832 49.2919 21.8104 50.0526 21.8104C50.7735 21.8104 51.1861 22.1733 51.1861 22.7997V22.8295C51.1861 23.3217 50.6641 23.3864 49.3367 23.5156C47.8253 23.6548 46.4681 24.1619 46.4681 25.8672C46.4681 27.3786 47.5469 28.1442 49.0036 28.1442ZM49.6101 26.6825C48.9588 26.6825 48.4915 26.3793 48.4915 25.7976C48.4915 25.201 48.9837 24.9077 49.7294 24.8033C50.1918 24.7386 50.9475 24.6293 51.201 24.4602V25.2706C51.201 26.071 50.5398 26.6825 49.6101 26.6825ZM59.7537 20.3636H58.2373V19.8516C58.2373 19.3345 58.4461 19.0312 59.0676 19.0312C59.3211 19.0312 59.5797 19.0859 59.7487 19.1406L60.1216 17.5497C59.8581 17.4702 59.2764 17.3409 58.6251 17.3409C57.1883 17.3409 56.1194 18.1513 56.1194 19.8118V20.3636H55.0406V21.9545H56.1194V28H58.2373V21.9545H59.7537V20.3636ZM63.6516 28.1442C64.7802 28.1442 65.511 27.652 65.8839 26.9411H65.9435V28H67.9521V22.8494C67.9521 21.0298 66.4109 20.2642 64.7106 20.2642C62.881 20.2642 61.6779 21.1392 61.3846 22.5312L63.3434 22.6903C63.4876 22.1832 63.94 21.8104 64.7006 21.8104C65.4215 21.8104 65.8342 22.1733 65.8342 22.7997V22.8295C65.8342 23.3217 65.3121 23.3864 63.9847 23.5156C62.4734 23.6548 61.1161 24.1619 61.1161 25.8672C61.1161 27.3786 62.195 28.1442 63.6516 28.1442ZM64.2582 26.6825C63.6069 26.6825 63.1396 26.3793 63.1396 25.7976C63.1396 25.201 63.6317 24.9077 64.3775 24.8033C64.8398 24.7386 65.5955 24.6293 65.8491 24.4602V25.2706C65.8491 26.071 65.1879 26.6825 64.2582 26.6825Z" fill="#7080B3"/>
</svg>
