<svg width="140" height="18" viewBox="0 0 140 18" fill="none" xmlns="http://www.w3.org/2000/svg">
<path d="M0.137784 14H8.51776V11.718H2.90554V0.909091H0.137784V14ZM16.5957 9.8196C16.6021 11.1364 15.7008 11.8267 14.7228 11.8267C13.6937 11.8267 13.0289 11.1044 13.0225 9.94744V4.18182H10.2995V10.4332C10.3059 12.728 11.6483 14.1278 13.6234 14.1278C15.1 14.1278 16.161 13.3672 16.6021 12.2166H16.7044V14H19.3187V4.18182H16.5957V9.8196ZM21.4968 17.6818H24.2198V12.4276H24.3029C24.68 13.2457 25.5046 14.1598 27.0898 14.1598C29.3271 14.1598 31.0721 12.3892 31.0721 9.10369C31.0721 5.72869 29.2504 4.05398 27.0962 4.05398C25.4535 4.05398 24.6673 5.03196 24.3029 5.83097H24.1815V4.18182H21.4968V17.6818ZM24.1623 9.09091C24.1623 7.33949 24.9038 6.22088 26.2269 6.22088C27.5756 6.22088 28.2915 7.39062 28.2915 9.09091C28.2915 10.804 27.5629 11.9929 26.2269 11.9929C24.9165 11.9929 24.1623 10.8423 24.1623 9.09091ZM35.6871 14.1854C37.1381 14.1854 38.0778 13.5526 38.5572 12.6385H38.6339V14H41.2163V7.37784C41.2163 5.03835 39.2347 4.05398 37.0487 4.05398C34.6964 4.05398 33.1495 5.17898 32.7724 6.96875L35.2908 7.1733C35.4762 6.52131 36.0579 6.0419 37.0359 6.0419C37.9627 6.0419 38.4933 6.50852 38.4933 7.31392V7.35227C38.4933 7.98509 37.8221 8.06818 36.1154 8.23438C34.1722 8.41335 32.4272 9.06534 32.4272 11.2578C32.4272 13.201 33.8143 14.1854 35.6871 14.1854ZM36.467 12.3061C35.6296 12.3061 35.0288 11.9162 35.0288 11.1683C35.0288 10.4013 35.6616 10.0241 36.6204 9.88991C37.2148 9.80682 38.1864 9.66619 38.5124 9.44886V10.4908C38.5124 11.5199 37.6623 12.3061 36.467 12.3061ZM47.546 14H50.3137V10.2798L51.6752 8.6179L55.2612 14H58.5723L53.6568 6.7706L58.5147 0.909091H55.1973L50.4863 6.68111H50.3137V0.909091H47.546V14ZM62.7047 14.1854C64.1557 14.1854 65.0953 13.5526 65.5748 12.6385H65.6515V14H68.2338V7.37784C68.2338 5.03835 66.2523 4.05398 64.0662 4.05398C61.714 4.05398 60.1671 5.17898 59.79 6.96875L62.3084 7.1733C62.4938 6.52131 63.0755 6.0419 64.0534 6.0419C64.9803 6.0419 65.5108 6.50852 65.5108 7.31392V7.35227C65.5108 7.98509 64.8397 8.06818 63.133 8.23438C61.1898 8.41335 59.4448 9.06534 59.4448 11.2578C59.4448 13.201 60.8319 14.1854 62.7047 14.1854ZM63.4846 12.3061C62.6472 12.3061 62.0463 11.9162 62.0463 11.1683C62.0463 10.4013 62.6792 10.0241 63.638 9.88991C64.2324 9.80682 65.204 9.66619 65.53 9.44886V10.4908C65.53 11.5199 64.6799 12.3061 63.4846 12.3061ZM75.5687 4.18182H73.7214V1.82955H70.9984V4.18182H69.6561V6.22727H70.9984V11.3409C70.9856 13.2649 72.296 14.2173 74.2711 14.1342C74.9743 14.1087 75.4728 13.968 75.7477 13.8786L75.3194 11.8523C75.1852 11.8778 74.8976 11.9418 74.6419 11.9418C74.0985 11.9418 73.7214 11.7372 73.7214 10.983V6.22727H75.5687V4.18182ZM80.1422 14.1854C81.5932 14.1854 82.5328 13.5526 83.0123 12.6385H83.089V14H85.6713V7.37784C85.6713 5.03835 83.6898 4.05398 81.5037 4.05398C79.1515 4.05398 77.6046 5.17898 77.2275 6.96875L79.7459 7.1733C79.9313 6.52131 80.513 6.0419 81.4909 6.0419C82.4178 6.0419 82.9483 6.50852 82.9483 7.31392V7.35227C82.9483 7.98509 82.2772 8.06818 80.5705 8.23438C78.6273 8.41335 76.8823 9.06534 76.8823 11.2578C76.8823 13.201 78.2694 14.1854 80.1422 14.1854ZM80.9221 12.3061C80.0847 12.3061 79.4838 11.9162 79.4838 11.1683C79.4838 10.4013 80.1167 10.0241 81.0755 9.88991C81.6699 9.80682 82.6415 9.66619 82.9675 9.44886V10.4908C82.9675 11.5199 82.1174 12.3061 80.9221 12.3061ZM99.1026 4.67401H101.755C101.717 2.34091 99.7994 0.730113 96.8846 0.730113C94.0146 0.730113 91.9116 2.31534 91.9244 4.69318C91.918 6.62358 93.2795 7.7294 95.4911 8.25994L96.9165 8.6179C98.342 8.96307 99.1346 9.37216 99.141 10.2543C99.1346 11.2131 98.2269 11.8651 96.8207 11.8651C95.3825 11.8651 94.3469 11.2003 94.2575 9.88991H91.5792C91.6495 12.7216 93.6758 14.1854 96.8526 14.1854C100.049 14.1854 101.928 12.6577 101.934 10.2607C101.928 8.08097 100.285 6.92401 98.0096 6.41264L96.8335 6.13139C95.6957 5.86932 94.7433 5.44744 94.7624 4.50781C94.7624 3.66406 95.5103 3.04403 96.8654 3.04403C98.1886 3.04403 99.0004 3.64489 99.1026 4.67401ZM106.545 14.1854C107.996 14.1854 108.935 13.5526 109.415 12.6385H109.491V14H112.074V7.37784C112.074 5.03835 110.092 4.05398 107.906 4.05398C105.554 4.05398 104.007 5.17898 103.63 6.96875L106.148 7.1733C106.334 6.52131 106.915 6.0419 107.893 6.0419C108.82 6.0419 109.351 6.50852 109.351 7.31392V7.35227C109.351 7.98509 108.68 8.06818 106.973 8.23438C105.03 8.41335 103.285 9.06534 103.285 11.2578C103.285 13.201 104.672 14.1854 106.545 14.1854ZM107.324 12.3061C106.487 12.3061 105.886 11.9162 105.886 11.1683C105.886 10.4013 106.519 10.0241 107.478 9.88991C108.072 9.80682 109.044 9.66619 109.37 9.44886V10.4908C109.37 11.5199 108.52 12.3061 107.324 12.3061ZM116.909 8.32386C116.916 7.05824 117.67 6.31676 118.769 6.31676C119.862 6.31676 120.521 7.03267 120.514 8.23438V14H123.237V7.74858C123.237 5.46023 121.895 4.05398 119.85 4.05398C118.392 4.05398 117.338 4.76989 116.896 5.91406H116.781V4.18182H114.186V14H116.909V8.32386ZM129.001 14.1598C130.587 14.1598 131.411 13.2457 131.788 12.4276H131.903V14H134.588V0.909091H131.871V5.83097H131.788C131.424 5.03196 130.638 4.05398 128.995 4.05398C126.841 4.05398 125.019 5.72869 125.019 9.10369C125.019 12.3892 126.764 14.1598 129.001 14.1598ZM129.864 11.9929C128.528 11.9929 127.8 10.804 127.8 9.09091C127.8 7.39062 128.516 6.22088 129.864 6.22088C131.188 6.22088 131.929 7.33949 131.929 9.09091C131.929 10.8423 131.175 11.9929 129.864 11.9929ZM136.827 14H139.55V4.18182H136.827V14ZM138.195 2.91619C139.007 2.91619 139.671 2.29616 139.671 1.53551C139.671 0.78125 139.007 0.161221 138.195 0.161221C137.389 0.161221 136.725 0.78125 136.725 1.53551C136.725 2.29616 137.389 2.91619 138.195 2.91619Z" fill="#7080B3"/>
</svg>
