<svg width="139" height="18" viewBox="0 0 139 18" fill="none" xmlns="http://www.w3.org/2000/svg">
<path d="M8.23935 4.67401H10.892C10.8537 2.34091 8.93608 0.730113 6.02131 0.730113C3.15128 0.730113 1.0483 2.31534 1.06108 4.69318C1.05469 6.62358 2.41619 7.7294 4.62784 8.25994L6.05327 8.6179C7.47869 8.96307 8.27131 9.37216 8.2777 10.2543C8.27131 11.2131 7.36364 11.8651 5.95739 11.8651C4.51918 11.8651 3.48366 11.2003 3.39418 9.88991H0.715909C0.786222 12.7216 2.8125 14.1854 5.98935 14.1854C9.18537 14.1854 11.0646 12.6577 11.071 10.2607C11.0646 8.08097 9.42188 6.92401 7.14631 6.41264L5.97017 6.13139C4.83239 5.86932 3.87997 5.44744 3.89915 4.50781C3.89915 3.66406 4.64702 3.04403 6.00213 3.04403C7.32528 3.04403 8.13707 3.64489 8.23935 4.67401ZM17.356 14.1918C19.785 14.1918 21.4213 13.0092 21.8049 11.1875L19.2864 11.0213C19.0115 11.7692 18.3084 12.1591 17.4007 12.1591C16.0392 12.1591 15.1763 11.2578 15.1763 9.79403V9.78764H21.8624V9.03977C21.8624 5.70312 19.8425 4.05398 17.2473 4.05398C14.3581 4.05398 12.4853 6.10582 12.4853 9.13565C12.4853 12.2486 14.3326 14.1918 17.356 14.1918ZM15.1763 8.10014C15.2338 6.98153 16.084 6.08665 17.2921 6.08665C18.4746 6.08665 19.2928 6.9304 19.2992 8.10014H15.1763ZM26.3624 0.909091H23.6394V14H26.3624V0.909091ZM31.3434 14.1854C32.7944 14.1854 33.734 13.5526 34.2134 12.6385H34.2901V14H36.8725V7.37784C36.8725 5.03835 34.891 4.05398 32.7049 4.05398C30.3526 4.05398 28.8058 5.17898 28.4286 6.96875L30.9471 7.1733C31.1325 6.52131 31.7141 6.0419 32.6921 6.0419C33.619 6.0419 34.1495 6.50852 34.1495 7.31392V7.35227C34.1495 7.98509 33.4783 8.06818 31.7717 8.23438C29.8285 8.41335 28.0835 9.06534 28.0835 11.2578C28.0835 13.201 29.4705 14.1854 31.3434 14.1854ZM32.1232 12.3061C31.2859 12.3061 30.685 11.9162 30.685 11.1683C30.685 10.4013 31.3178 10.0241 32.2766 9.88991C32.8711 9.80682 33.8427 9.66619 34.1687 9.44886V10.4908C34.1687 11.5199 33.3185 12.3061 32.1232 12.3061ZM38.9851 14H41.7081V8.10653C41.7081 7.01989 42.3984 6.29759 43.3061 6.29759C44.201 6.29759 44.8018 6.91122 44.8018 7.87642V14H47.4418V8.00426C47.4418 6.98793 48.0234 6.29759 49.0142 6.29759C49.8835 6.29759 50.5355 6.84091 50.5355 7.93395V14H53.2521V7.39702C53.2521 5.26847 51.9865 4.05398 50.1584 4.05398C48.7202 4.05398 47.6016 4.78906 47.1989 5.91406H47.0966C46.7834 4.77628 45.7798 4.05398 44.4311 4.05398C43.108 4.05398 42.1044 4.7571 41.6953 5.91406H41.5803V4.18182H38.9851V14ZM58.2028 14.1854C59.6538 14.1854 60.5934 13.5526 61.0728 12.6385H61.1495V14H63.7319V7.37784C63.7319 5.03835 61.7504 4.05398 59.5643 4.05398C57.212 4.05398 55.6651 5.17898 55.288 6.96875L57.8065 7.1733C57.9918 6.52131 58.5735 6.0419 59.5515 6.0419C60.4783 6.0419 61.0089 6.50852 61.0089 7.31392V7.35227C61.0089 7.98509 60.3377 8.06818 58.631 8.23438C56.6879 8.41335 54.9428 9.06534 54.9428 11.2578C54.9428 13.201 56.3299 14.1854 58.2028 14.1854ZM58.9826 12.3061C58.1452 12.3061 57.5444 11.9162 57.5444 11.1683C57.5444 10.4013 58.1772 10.0241 59.136 9.88991C59.7305 9.80682 60.7021 9.66619 61.0281 9.44886V10.4908C61.0281 11.5199 60.1779 12.3061 58.9826 12.3061ZM71.0668 4.18182H69.2195V1.82955H66.4964V4.18182H65.1541V6.22727H66.4964V11.3409C66.4837 13.2649 67.794 14.2173 69.7692 14.1342C70.4723 14.1087 70.9709 13.968 71.2457 13.8786L70.8175 11.8523C70.6832 11.8778 70.3956 11.9418 70.1399 11.9418C69.5966 11.9418 69.2195 11.7372 69.2195 10.983V6.22727H71.0668V4.18182ZM81.6983 14C85.687 14 88.1032 11.5327 88.1032 7.44176C88.1032 3.36364 85.687 0.909091 81.7367 0.909091H77.0577V14H81.6983ZM79.8255 11.6286V3.28054H81.5897C84.0442 3.28054 85.3418 4.53338 85.3418 7.44176C85.3418 10.3629 84.0442 11.6286 81.5833 11.6286H79.8255ZM92.902 14.1854C94.353 14.1854 95.2926 13.5526 95.772 12.6385H95.8487V14H98.4311V7.37784C98.4311 5.03835 96.4496 4.05398 94.2635 4.05398C91.9112 4.05398 90.3643 5.17898 89.9872 6.96875L92.5057 7.1733C92.6911 6.52131 93.2727 6.0419 94.2507 6.0419C95.1776 6.0419 95.7081 6.50852 95.7081 7.31392V7.35227C95.7081 7.98509 95.0369 8.06818 93.3303 8.23438C91.3871 8.41335 89.642 9.06534 89.642 11.2578C89.642 13.201 91.0291 14.1854 92.902 14.1854ZM93.6818 12.3061C92.8445 12.3061 92.2436 11.9162 92.2436 11.1683C92.2436 10.4013 92.8764 10.0241 93.8352 9.88991C94.4297 9.80682 95.4013 9.66619 95.7273 9.44886V10.4908C95.7273 11.5199 94.8771 12.3061 93.6818 12.3061ZM105.766 4.18182H103.919V1.82955H101.196V4.18182H99.8533V6.22727H101.196V11.3409C101.183 13.2649 102.493 14.2173 104.468 14.1342C105.172 14.1087 105.67 13.968 105.945 13.8786L105.517 11.8523C105.382 11.8778 105.095 11.9418 104.839 11.9418C104.296 11.9418 103.919 11.7372 103.919 10.983V6.22727H105.766V4.18182ZM110.339 14.1854C111.79 14.1854 112.73 13.5526 113.21 12.6385H113.286V14H115.869V7.37784C115.869 5.03835 113.887 4.05398 111.701 4.05398C109.349 4.05398 107.802 5.17898 107.425 6.96875L109.943 7.1733C110.129 6.52131 110.71 6.0419 111.688 6.0419C112.615 6.0419 113.146 6.50852 113.146 7.31392V7.35227C113.146 7.98509 112.474 8.06818 110.768 8.23438C108.825 8.41335 107.08 9.06534 107.08 11.2578C107.08 13.201 108.467 14.1854 110.339 14.1854ZM111.119 12.3061C110.282 12.3061 109.681 11.9162 109.681 11.1683C109.681 10.4013 110.314 10.0241 111.273 9.88991C111.867 9.80682 112.839 9.66619 113.165 9.44886V10.4908C113.165 11.5199 112.315 12.3061 111.119 12.3061ZM120.704 8.32386C120.711 7.05824 121.465 6.31676 122.564 6.31676C123.657 6.31676 124.316 7.03267 124.309 8.23438V14H127.032V7.74858C127.032 5.46023 125.69 4.05398 123.645 4.05398C122.187 4.05398 121.132 4.76989 120.691 5.91406H120.576V4.18182H117.981V14H120.704V8.32386ZM133.602 17.8864C136.408 17.8864 138.402 16.608 138.402 14.0959V4.18182H135.698V5.83097H135.596C135.232 5.03196 134.433 4.05398 132.79 4.05398C130.636 4.05398 128.814 5.72869 128.814 9.07173C128.814 12.3381 130.585 13.8594 132.796 13.8594C134.362 13.8594 135.238 13.0732 135.596 12.2614H135.711V14.0575C135.711 15.4062 134.848 15.9304 133.666 15.9304C132.464 15.9304 131.857 15.4062 131.633 14.8118L129.115 15.1506C129.441 16.6974 130.955 17.8864 133.602 17.8864ZM133.659 11.8139C132.323 11.8139 131.595 10.7528 131.595 9.05895C131.595 7.39062 132.311 6.22088 133.659 6.22088C134.982 6.22088 135.724 7.33949 135.724 9.05895C135.724 10.7912 134.97 11.8139 133.659 11.8139Z" fill="#7080B3"/>
</svg>
