<svg width="9" height="16" viewBox="0 0 9 16" fill="none" xmlns="http://www.w3.org/2000/svg">
<path d="M3.29603 9.28964H1.07301V10.4028H1.26413V16.0001H3.11924V10.4024H3.29603V9.28964ZM3.72546 5.13216C3.72546 5.12674 3.72489 5.12245 3.72489 5.11703H3.72546V0.307727C3.72546 0.137828 3.58773 -9.18128e-06 3.41795 -9.18128e-06C3.24827 -9.18128e-06 3.11044 0.137716 3.11044 0.307727V2.84118V3.93881V4.06118C3.08221 4.2015 2.95792 4.30784 2.8088 4.30784C2.63901 4.30784 2.50129 4.17011 2.50129 4.00044V2.32889V0.307727C2.50095 0.137716 2.36176 -0.00012207 2.19016 -0.00012207C2.01857 -0.00012207 1.87949 0.137603 1.87949 0.307614V2.32607V3.99977C1.87949 4.16944 1.74177 4.30728 1.57187 4.30728C1.40231 4.30728 1.26447 4.16978 1.26447 3.99977V0.309533H1.26323C1.26346 0.305243 1.26425 0.301518 1.26425 0.297228C1.26425 0.132861 1.12618 -0.00012207 0.956173 -0.00012207C0.786275 -0.00012207 0.648438 0.132861 0.648438 0.297002C0.648438 0.301292 0.648889 0.305017 0.649115 0.309307H0.648438V5.11669H0.648889C0.648889 5.12233 0.648438 5.12674 0.648438 5.13216C0.648438 6.33522 1.04818 7.36375 1.6133 7.78731V9.23805H2.75574V7.79058C3.32368 7.3695 3.72546 6.33883 3.72546 5.13216ZM8.03308 11.3845V4.93776V-9.18128e-06C6.96628 0.313032 6.18712 1.29991 6.18712 2.46933C6.18712 2.4717 6.18734 2.47429 6.18745 2.47655H6.18712V11.3846H5.93176V12.6156H6.18712V15.9999H8.03308V12.6151H8.27297V11.3845H8.03308Z" fill="white"/>
</svg>
