<svg width="250" height="173" viewBox="0 0 250 173" fill="none" xmlns="http://www.w3.org/2000/svg">
<g clip-path="url(#clip0)">
<path opacity="0.1" d="M141.407 23.5371C125.383 23.5586 109.958 19.0081 95.2048 13.953C80.4514 8.89789 65.8116 3.2372 50.0849 0.838487C39.9706 -0.703387 28.4692 -0.561655 20.563 5.03676C12.9526 10.4226 10.7488 19.3367 9.68553 27.5722C8.88591 33.7676 8.51718 40.2701 11.512 45.9372C13.5915 49.8714 17.1501 53.114 19.6583 56.8635C28.4135 69.9071 23.1484 86.5693 14.6398 99.9157C10.6502 106.178 5.97681 112.18 2.96053 118.8C-0.0557575 125.421 -1.29271 132.929 1.7836 139.463C4.83204 145.94 11.7178 150.641 19.1074 153.851C34.1138 160.384 51.5855 161.784 68.5877 162.323C106.224 163.519 143.933 161.08 181.541 158.64C195.458 157.738 209.438 156.83 223.068 154.216C230.635 152.767 238.428 150.615 243.794 145.899C250.605 139.912 251.998 130.137 247.042 123.11C238.73 111.325 216.814 109.103 210.855 96.3509C207.568 89.3309 210.402 81.2801 214.576 74.5134C223.529 59.9945 238.938 46.9895 239.198 30.7504C239.375 19.5987 231.362 8.71965 219.393 3.87284C206.848 -1.20374 189.743 0.101909 180.953 9.5636C171.915 19.3109 155.556 23.5221 141.407 23.5371Z" fill="#27AE60"/>
<path d="M212.776 138.588C212.776 138.588 210.141 136.847 207.53 138.086C207.53 138.086 208.334 139.636 211.639 139.49L212.776 138.588Z" fill="#27AE60"/>
<path d="M213.11 138.681C213.11 138.681 213.912 141.739 211.901 143.82C211.901 143.82 210.692 142.559 211.901 139.471L213.11 138.681Z" fill="#27AE60"/>
<path d="M216.386 135.745C216.386 135.745 216.191 133.144 210.327 134.008C210.327 134.008 210.3 135.685 212.358 136.479C214.416 137.274 215.359 136.604 216.386 135.745Z" fill="#27AE60"/>
<path d="M216.754 135.728C216.754 135.728 219.233 136.524 217.022 142.033C217.022 142.033 215.387 141.668 215.093 139.475C214.799 137.283 215.67 136.527 216.754 135.728Z" fill="#27AE60"/>
<path d="M220.064 132.039C220.064 132.039 220.401 127.759 214.409 128.197C214.409 128.197 213.98 132.062 219.007 133.067L220.064 132.039Z" fill="#27AE60"/>
<path d="M224.024 127.207C224.024 127.207 223.203 122.356 217.213 123.801C217.213 123.801 217.192 127.995 223.046 128.362L224.024 127.207Z" fill="#27AE60"/>
<path d="M226.918 122.212C226.918 122.212 225.542 117.487 219.608 118.9C219.608 118.9 221.021 123.15 226.524 123.083L226.918 122.212Z" fill="#27AE60"/>
<path d="M229.666 117.333C229.666 117.333 228.322 112.43 222.592 113.897C222.592 113.897 224.504 118.555 229.287 118.162L229.666 117.333Z" fill="#27AE60"/>
<path d="M231.437 112.698C231.437 112.698 230.404 106.703 225.062 108.03C225.062 108.03 226.614 113.484 231.045 113.573L231.437 112.698Z" fill="#27AE60"/>
<path d="M233.099 107.1C233.099 107.1 231.857 101.057 226.453 102.805C226.453 102.805 228.571 108.517 232.715 107.927L233.099 107.1Z" fill="#27AE60"/>
<path d="M234.119 101.89C234.119 101.89 232.149 95.8454 227.971 96.0086C227.971 96.0086 229.984 102.393 233.769 103.095L234.119 101.89Z" fill="#27AE60"/>
<path d="M234.779 96.8052C234.779 96.8052 232.635 89.5296 229.235 90.0901C229.235 90.0901 230.719 95.652 234.659 97.9391L234.779 96.8052Z" fill="#27AE60"/>
<path d="M235.152 90.7388C235.152 90.7388 233.141 84.6765 229.793 84.4338C229.793 84.4338 231.161 90.3995 235.086 92.315L235.152 90.7388Z" fill="#27AE60"/>
<path d="M235.557 85.078C235.557 85.078 233.051 79.0093 230.841 78.8718C230.841 78.8718 231.93 84.8482 235.343 86.0744L235.557 85.078Z" fill="#27AE60"/>
<path d="M235.834 79.8125C235.834 79.8125 234.293 73.2219 232.078 72.6743C232.078 72.6743 232.38 78.0666 235.611 80.3064L235.834 79.8125Z" fill="#27AE60"/>
<path d="M236.67 72.9147C236.67 72.9147 235.049 67.6599 233.255 66.8589C233.255 66.8589 233.609 73.0543 236.256 74.1989L236.67 72.9147Z" fill="#27AE60"/>
<path d="M237.362 68.405L237.688 59.1409C237.688 59.1409 234.333 66.1244 237.12 70.0306L237.362 68.405Z" fill="#27AE60"/>
<path d="M239.952 59.1903C239.952 59.1903 242.368 52.4258 242.953 52.0479C242.953 52.0479 238.216 56.4373 238.679 62.0829L239.952 59.1903Z" fill="#27AE60"/>
<path d="M220.227 132.006C220.227 132.006 224.476 131.45 224.35 137.465C224.35 137.465 220.51 138.092 219.256 133.116L220.227 132.006Z" fill="#27AE60"/>
<path d="M224.225 127.043C224.225 127.043 229.135 127.028 228.727 133.185C228.727 133.185 224.605 133.924 223.246 128.207L224.225 127.043Z" fill="#27AE60"/>
<path d="M226.965 122.609C226.965 122.609 231.422 120.515 234.273 125.92C234.273 125.92 230.157 127.664 226.571 123.483L226.965 122.609Z" fill="#27AE60"/>
<path d="M229.765 117.378C229.765 117.378 234.329 115.151 237.009 120.429C237.009 120.429 232.254 122.07 229.388 118.213L229.765 117.378Z" fill="#27AE60"/>
<path d="M231.379 112.829C231.379 112.829 235.772 108.627 239.277 112.877C239.277 112.877 234.79 116.336 231.178 113.766L231.379 112.829Z" fill="#27AE60"/>
<path d="M232.85 106.956C232.85 106.956 237.268 102.661 240.745 107.154C240.745 107.154 235.787 110.682 232.691 107.858L232.85 106.956Z" fill="#27AE60"/>
<path d="M233.675 101.719C233.675 101.719 237.079 96.3499 241.088 97.5482C241.088 97.5482 237.555 103.232 233.714 102.979L233.675 101.719Z" fill="#27AE60"/>
<path d="M234.678 96.771C234.678 96.771 238.109 90.0108 241.354 91.1876C241.354 91.1876 238.88 96.3845 234.591 97.9113L234.678 96.771Z" fill="#27AE60"/>
<path d="M234.916 90.3865C234.916 90.3865 238.443 85.0651 241.746 85.7158C241.746 85.7158 238.863 91.1124 234.573 91.9263L234.916 90.3865Z" fill="#27AE60"/>
<path d="M235.191 84.9599C235.191 84.9599 237.924 78.9878 240.145 78.947C240.145 78.947 238.833 84.8762 235.375 85.9735L235.191 84.9599Z" fill="#27AE60"/>
<path d="M235.727 79.6834C235.727 79.6834 238.764 73.6362 241.048 73.6233C241.048 73.6233 239.493 78.7944 235.827 80.2138L235.727 79.6834Z" fill="#27AE60"/>
<path d="M236.183 73.2927C236.183 73.2927 238.456 68.2891 240.338 67.7222C240.338 67.7222 239.202 73.8209 236.434 74.6198L236.183 73.2927Z" fill="#27AE60"/>
<path d="M237.633 68.2226L242.711 60.4724C242.711 60.4724 241.41 68.1174 236.891 69.7065L237.633 68.2226Z" fill="#27AE60"/>
<path d="M241.118 59.8154C241.118 59.8154 247.02 55.7352 247.235 55.0759C247.235 55.0759 244.233 60.7903 238.659 61.7996L241.118 59.8154Z" fill="#27AE60"/>
<path d="M241.472 57.9791C241.472 57.9791 248.249 51.453 249.979 51.4595C249.979 51.4595 244.39 51.715 241.309 57.6313L241.472 57.9791Z" fill="#27AE60"/>
<path d="M236.25 74.2612L236.496 74.2935C237.77 64.3099 239.626 58.4023 241.723 57.6786L241.641 57.4424C239.418 58.2155 237.549 64.0329 236.25 74.2612Z" fill="#444053"/>
<path d="M234.376 98.1366L234.749 98.1666C234.829 97.2346 234.889 96.2812 234.929 95.3298C235.285 87.0664 235.836 79.4773 236.561 73.7887L236.346 73.5203C235.62 79.2218 234.912 87.0385 234.556 95.3148C234.516 96.2597 234.456 97.2089 234.376 98.1366Z" fill="#444053"/>
<path d="M205.821 143.351C205.885 143.323 212.452 140.386 219.267 133.381C223.26 129.278 226.577 124.566 229.096 119.422C232.247 112.995 234.168 105.096 234.811 97.4236L234.423 97.6061C232.976 114.829 225.149 126.597 218.926 133.007C212.177 139.95 205.684 142.857 205.62 142.885L205.821 143.351Z" fill="#444053"/>
<path d="M222.823 18.3027H16.8329C16.3462 18.3027 15.8794 18.4964 15.5353 18.8411C15.1911 19.1859 14.9978 19.6534 14.9978 20.141V25.4967H224.658V20.141C224.658 19.6534 224.465 19.1859 224.121 18.8411C223.777 18.4964 223.31 18.3027 222.823 18.3027Z" fill="#3F3D56"/>
<path d="M14.9978 25.4968V146.021C14.9978 147.004 15.3876 147.947 16.0816 148.642C16.7755 149.337 17.7166 149.727 18.6979 149.727H220.958C221.94 149.727 222.881 149.337 223.575 148.642C224.269 147.947 224.658 147.004 224.658 146.021V25.4968H14.9978Z" fill="white"/>
<path opacity="0.8" d="M18.3185 22.705C18.7921 22.705 19.176 22.3204 19.176 21.846C19.176 21.3716 18.7921 20.9871 18.3185 20.9871C17.8449 20.9871 17.461 21.3716 17.461 21.846C17.461 22.3204 17.8449 22.705 18.3185 22.705Z" fill="#FA5959"/>
<path opacity="0.8" d="M20.6767 22.705C21.1503 22.705 21.5342 22.3204 21.5342 21.846C21.5342 21.3716 21.1503 20.9871 20.6767 20.9871C20.2031 20.9871 19.8192 21.3716 19.8192 21.846C19.8192 22.3204 20.2031 22.705 20.6767 22.705Z" fill="#FED253"/>
<path opacity="0.8" d="M23.0348 22.705C23.5084 22.705 23.8923 22.3204 23.8923 21.846C23.8923 21.3716 23.5084 20.9871 23.0348 20.9871C22.5612 20.9871 22.1773 21.3716 22.1773 21.846C22.1773 22.3204 22.5612 22.705 23.0348 22.705Z" fill="#8CCF4D"/>
<path opacity="0.05" d="M202.987 45.5925H34.4868V119.813H202.987V45.5925Z" fill="black"/>
<path d="M201.701 46.1553H35.7731V118.739H201.701V46.1553Z" fill="#3F3D56"/>
<path d="M81.0067 64.8359C77.7419 64.8359 74.5504 65.8057 71.8359 67.6227C69.1213 69.4396 67.0055 72.0221 65.7562 75.0435C64.5068 78.065 64.1799 81.3897 64.8168 84.5973C65.4537 87.8048 67.0259 90.7511 69.3344 93.0637C71.643 95.3762 74.5843 96.951 77.7863 97.589C80.9884 98.2271 84.3074 97.8996 87.3236 96.6481C90.3399 95.3966 92.9179 93.2772 94.7318 90.5579C96.5456 87.8387 97.5137 84.6418 97.5137 81.3714C97.5137 79.1999 97.0867 77.0497 96.2572 75.0435C95.4276 73.0374 94.2117 71.2145 92.6789 69.679C91.1461 68.1436 89.3264 66.9256 87.3236 66.0946C85.3209 65.2636 83.1744 64.8359 81.0067 64.8359ZM83.9672 81.7686V89.5983H78.1319V81.7686C77.3244 81.1563 76.7292 80.3054 76.4305 79.336C76.1317 78.3667 76.1444 77.3278 76.4668 76.366C76.7892 75.4043 77.405 74.5683 78.2273 73.976C79.0496 73.3837 80.0368 73.0651 81.0495 73.0651C82.0623 73.0651 83.0495 73.3837 83.8718 73.976C84.6941 74.5683 85.3099 75.4043 85.6323 76.366C85.9547 77.3278 85.9674 78.3667 85.6686 79.336C85.3699 80.3054 84.7747 81.1563 83.9672 81.7686Z" fill="#27AE60"/>
<path opacity="0.05" d="M81.0067 64.8359C77.7419 64.8359 74.5504 65.8057 71.8359 67.6227C69.1213 69.4396 67.0055 72.0221 65.7562 75.0435C64.5068 78.065 64.1799 81.3897 64.8168 84.5973C65.4537 87.8048 67.0259 90.7511 69.3344 93.0637C71.643 95.3762 74.5843 96.951 77.7863 97.589C80.9884 98.2271 84.3074 97.8996 87.3236 96.6481C90.3399 95.3966 92.9179 93.2772 94.7318 90.5579C96.5456 87.8387 97.5137 84.6418 97.5137 81.3714C97.5137 79.1999 97.0867 77.0497 96.2572 75.0435C95.4276 73.0374 94.2117 71.2145 92.6789 69.679C91.1461 68.1436 89.3264 66.9256 87.3236 66.0946C85.3209 65.2636 83.1744 64.8359 81.0067 64.8359ZM83.9672 81.7686V89.5983H78.1319V81.7686C77.3244 81.1563 76.7292 80.3054 76.4305 79.336C76.1317 78.3667 76.1444 77.3278 76.4668 76.366C76.7892 75.4043 77.405 74.5683 78.2273 73.976C79.0496 73.3837 80.0368 73.0651 81.0495 73.0651C82.0623 73.0651 83.0495 73.3837 83.8718 73.976C84.6941 74.5683 85.3099 75.4043 85.6323 76.366C85.9547 77.3278 85.9674 78.3667 85.6686 79.336C85.3699 80.3054 84.7747 81.1563 83.9672 81.7686Z" fill="black"/>
<path d="M81.0066 60.1116C76.809 60.1116 72.7057 61.3584 69.2155 63.6945C65.7254 66.0306 63.0051 69.3509 61.3988 73.2356C59.7925 77.1203 59.3722 81.395 60.1911 85.519C61.01 89.643 63.0313 93.4311 65.9994 96.4043C68.9676 99.3776 72.7492 101.402 76.8661 102.223C80.9831 103.043 85.2504 102.622 89.1284 101.013C93.0065 99.4038 96.3211 96.6789 98.6531 93.1827C100.985 89.6865 102.23 85.5762 102.23 81.3714C102.23 75.7329 99.9939 70.3254 96.0138 66.3384C92.0336 62.3514 86.6354 60.1116 81.0066 60.1116ZM84.8118 81.8825V91.9476H77.3086V81.8825C76.27 81.0951 75.5044 80.0009 75.1201 78.7542C74.7357 77.5075 74.752 76.1714 75.1666 74.9345C75.5811 73.6975 76.373 72.6223 77.4305 71.8605C78.488 71.0988 79.7577 70.6889 81.0602 70.6889C82.3627 70.6889 83.6324 71.0988 84.6899 71.8605C85.7473 72.6223 86.5393 73.6975 86.9538 74.9345C87.3684 76.1714 87.3847 77.5075 87.0003 78.7542C86.616 80.0009 85.8504 81.0951 84.8118 81.8825Z" fill="#27AE60"/>
<path d="M179.62 78.5818H111.019V85.8831H179.62V78.5818Z" fill="white"/>
<path d="M179.62 91.8962H164.828V99.1976H179.62V91.8962Z" fill="#27AE60"/>
<path d="M117.772 82.1231H116.531L117.635 81.0193C117.655 80.9989 117.666 80.9715 117.666 80.9431C117.666 80.9146 117.655 80.8873 117.635 80.8668C117.625 80.8568 117.613 80.8488 117.6 80.8433C117.587 80.8379 117.573 80.8351 117.559 80.8351C117.545 80.8351 117.531 80.8379 117.518 80.8433C117.505 80.8488 117.493 80.8568 117.483 80.8668L116.379 81.9728V80.7272C116.379 80.6988 116.368 80.6715 116.347 80.6513C116.327 80.6312 116.3 80.6199 116.272 80.6199C116.243 80.6204 116.216 80.6319 116.196 80.6519C116.176 80.6719 116.165 80.6989 116.164 80.7272V81.9728L115.063 80.8604C115.053 80.8503 115.041 80.8423 115.028 80.8369C115.015 80.8314 115.001 80.8286 114.986 80.8286C114.972 80.8286 114.958 80.8314 114.945 80.8369C114.932 80.8423 114.92 80.8503 114.91 80.8604C114.891 80.8808 114.88 80.9082 114.88 80.9366C114.88 80.9651 114.891 80.9924 114.91 81.0129L116.014 82.1167H114.771C114.743 82.1172 114.716 82.1287 114.696 82.1487C114.676 82.1687 114.664 82.1957 114.664 82.224C114.664 82.2525 114.675 82.2798 114.695 82.3C114.715 82.3201 114.743 82.3314 114.771 82.3314H116.014L114.91 83.4373C114.891 83.4578 114.88 83.4851 114.88 83.5136C114.88 83.542 114.891 83.5694 114.91 83.5898C114.931 83.6091 114.958 83.6199 114.986 83.6199C115.015 83.6199 115.042 83.6091 115.063 83.5898L116.164 82.4839V83.7273C116.164 83.7557 116.176 83.783 116.196 83.8032C116.216 83.8233 116.243 83.8346 116.272 83.8346C116.3 83.8346 116.327 83.8233 116.347 83.8032C116.368 83.783 116.379 83.7557 116.379 83.7273V82.4839L117.483 83.5898C117.503 83.6091 117.531 83.6199 117.559 83.6199C117.587 83.6199 117.614 83.6091 117.635 83.5898C117.655 83.5694 117.666 83.542 117.666 83.5136C117.666 83.4851 117.655 83.4578 117.635 83.4373L116.531 82.3314H117.772C117.801 82.3314 117.828 82.3201 117.848 82.3C117.868 82.2798 117.879 82.2525 117.879 82.224C117.878 82.1967 117.866 82.171 117.846 82.1522C117.826 82.1335 117.8 82.123 117.772 82.1231Z" fill="#27AE60"/>
<path d="M122.274 82.1231H121.033L122.137 81.0193C122.157 80.9989 122.168 80.9715 122.168 80.9431C122.168 80.9146 122.157 80.8873 122.137 80.8668C122.127 80.8568 122.115 80.8488 122.102 80.8433C122.089 80.8379 122.075 80.8351 122.061 80.8351C122.047 80.8351 122.033 80.8379 122.02 80.8433C122.007 80.8488 121.995 80.8568 121.985 80.8668L120.881 81.9728V80.7272C120.881 80.6988 120.869 80.6715 120.849 80.6513C120.829 80.6312 120.802 80.6199 120.774 80.6199C120.745 80.6204 120.718 80.6319 120.698 80.6519C120.678 80.6719 120.667 80.6989 120.666 80.7272V81.9728L119.564 80.8604C119.554 80.8503 119.543 80.8423 119.53 80.8369C119.517 80.8314 119.502 80.8286 119.488 80.8286C119.474 80.8286 119.46 80.8314 119.447 80.8369C119.434 80.8423 119.422 80.8503 119.412 80.8604C119.392 80.8808 119.381 80.9082 119.381 80.9366C119.381 80.9651 119.392 80.9924 119.412 81.0129L120.516 82.1167H119.273C119.245 82.1172 119.218 82.1287 119.198 82.1487C119.178 82.1687 119.166 82.1957 119.166 82.224C119.166 82.2525 119.177 82.2798 119.197 82.3C119.217 82.3201 119.244 82.3314 119.273 82.3314H120.516L119.412 83.4373C119.392 83.4578 119.381 83.4851 119.381 83.5136C119.381 83.542 119.392 83.5694 119.412 83.5898C119.433 83.6091 119.46 83.6199 119.488 83.6199C119.517 83.6199 119.544 83.6091 119.564 83.5898L120.666 82.4839V83.7273C120.666 83.7557 120.678 83.783 120.698 83.8032C120.718 83.8233 120.745 83.8346 120.774 83.8346C120.802 83.8346 120.829 83.8233 120.849 83.8032C120.869 83.783 120.881 83.7557 120.881 83.7273V82.4839L121.985 83.5898C122.005 83.6091 122.033 83.6199 122.061 83.6199C122.089 83.6199 122.116 83.6091 122.137 83.5898C122.157 83.5694 122.168 83.542 122.168 83.5136C122.168 83.4851 122.157 83.4578 122.137 83.4373L121.033 82.3314H122.274C122.303 82.3314 122.33 82.3201 122.35 82.3C122.37 82.2798 122.381 82.2525 122.381 82.224C122.38 82.1967 122.368 82.171 122.348 82.1522C122.328 82.1335 122.302 82.123 122.274 82.1231Z" fill="#27AE60"/>
<path d="M126.776 82.1231H125.535L126.639 81.0193C126.659 80.9989 126.67 80.9715 126.67 80.9431C126.67 80.9146 126.659 80.8873 126.639 80.8668C126.629 80.8568 126.617 80.8488 126.604 80.8433C126.591 80.8379 126.577 80.8351 126.563 80.8351C126.549 80.8351 126.535 80.8379 126.522 80.8433C126.509 80.8488 126.497 80.8568 126.487 80.8668L125.383 81.9728V80.7272C125.383 80.6988 125.371 80.6715 125.351 80.6513C125.331 80.6312 125.304 80.6199 125.275 80.6199C125.247 80.6204 125.22 80.6319 125.2 80.6519C125.18 80.6719 125.169 80.6989 125.168 80.7272V81.9728L124.066 80.8604C124.056 80.8503 124.045 80.8423 124.032 80.8369C124.018 80.8314 124.004 80.8286 123.99 80.8286C123.976 80.8286 123.962 80.8314 123.949 80.8369C123.936 80.8423 123.924 80.8503 123.914 80.8604C123.894 80.8808 123.883 80.9082 123.883 80.9366C123.883 80.9651 123.894 80.9924 123.914 81.0129L125.018 82.1167H123.775C123.747 82.1172 123.72 82.1287 123.7 82.1487C123.68 82.1687 123.668 82.1957 123.668 82.224C123.668 82.2525 123.679 82.2798 123.699 82.3C123.719 82.3201 123.746 82.3314 123.775 82.3314H125.018L123.914 83.4373C123.894 83.4578 123.883 83.4851 123.883 83.5136C123.883 83.542 123.894 83.5694 123.914 83.5898C123.935 83.6091 123.962 83.6199 123.99 83.6199C124.019 83.6199 124.046 83.6091 124.066 83.5898L125.168 82.4839V83.7273C125.168 83.7557 125.18 83.783 125.2 83.8032C125.22 83.8233 125.247 83.8346 125.275 83.8346C125.304 83.8346 125.331 83.8233 125.351 83.8032C125.371 83.783 125.383 83.7557 125.383 83.7273V82.4839L126.487 83.5898C126.507 83.6091 126.535 83.6199 126.563 83.6199C126.591 83.6199 126.618 83.6091 126.639 83.5898C126.659 83.5694 126.67 83.542 126.67 83.5136C126.67 83.4851 126.659 83.4578 126.639 83.4373L125.535 82.3314H126.776C126.805 82.3314 126.832 82.3201 126.852 82.3C126.872 82.2798 126.883 82.2525 126.883 82.224C126.882 82.1967 126.87 82.171 126.85 82.1522C126.83 82.1335 126.803 82.123 126.776 82.1231Z" fill="#27AE60"/>
<path d="M131.278 82.1231H130.037L131.141 81.0193C131.161 80.9989 131.172 80.9715 131.172 80.9431C131.172 80.9146 131.161 80.8873 131.141 80.8668C131.131 80.8568 131.119 80.8488 131.106 80.8433C131.093 80.8379 131.079 80.8351 131.065 80.8351C131.051 80.8351 131.037 80.8379 131.023 80.8433C131.01 80.8488 130.999 80.8568 130.989 80.8668L129.885 81.9728V80.7272C129.885 80.6988 129.873 80.6715 129.853 80.6513C129.833 80.6312 129.806 80.6199 129.777 80.6199C129.749 80.6204 129.722 80.6319 129.702 80.6519C129.682 80.6719 129.671 80.6989 129.67 80.7272V81.9728L128.568 80.8604C128.558 80.8503 128.546 80.8423 128.533 80.8369C128.52 80.8314 128.506 80.8286 128.492 80.8286C128.478 80.8286 128.464 80.8314 128.451 80.8369C128.438 80.8423 128.426 80.8503 128.416 80.8604C128.396 80.8808 128.385 80.9082 128.385 80.9366C128.385 80.9651 128.396 80.9924 128.416 81.0129L129.52 82.1167H128.277C128.248 82.1172 128.222 82.1287 128.202 82.1487C128.182 82.1687 128.17 82.1957 128.17 82.224C128.17 82.2525 128.181 82.2798 128.201 82.3C128.221 82.3201 128.248 82.3314 128.277 82.3314H129.52L128.416 83.4373C128.396 83.4578 128.385 83.4851 128.385 83.5136C128.385 83.542 128.396 83.5694 128.416 83.5898C128.437 83.6091 128.464 83.6199 128.492 83.6199C128.52 83.6199 128.548 83.6091 128.568 83.5898L129.67 82.4839V83.7273C129.67 83.7557 129.681 83.783 129.702 83.8032C129.722 83.8233 129.749 83.8346 129.777 83.8346C129.806 83.8346 129.833 83.8233 129.853 83.8032C129.873 83.783 129.885 83.7557 129.885 83.7273V82.4839L130.989 83.5898C131.009 83.6091 131.036 83.6199 131.065 83.6199C131.093 83.6199 131.12 83.6091 131.141 83.5898C131.161 83.5694 131.172 83.542 131.172 83.5136C131.172 83.4851 131.161 83.4578 131.141 83.4373L130.037 82.3314H131.278C131.306 82.3314 131.334 82.3201 131.354 82.3C131.374 82.2798 131.385 82.2525 131.385 82.224C131.384 82.1967 131.372 82.171 131.352 82.1522C131.332 82.1335 131.305 82.123 131.278 82.1231Z" fill="#27AE60"/>
<path d="M135.78 82.1231H134.539L135.643 81.0193C135.663 80.9989 135.674 80.9715 135.674 80.9431C135.674 80.9146 135.663 80.8873 135.643 80.8668C135.633 80.8568 135.621 80.8488 135.608 80.8433C135.595 80.8379 135.581 80.8351 135.567 80.8351C135.553 80.8351 135.539 80.8379 135.525 80.8433C135.512 80.8488 135.501 80.8568 135.491 80.8668L134.387 81.9728V80.7272C134.387 80.6988 134.375 80.6715 134.355 80.6513C134.335 80.6312 134.308 80.6199 134.279 80.6199C134.251 80.6204 134.224 80.6319 134.204 80.6519C134.184 80.6719 134.173 80.6989 134.172 80.7272V81.9728L133.07 80.8604C133.06 80.8503 133.048 80.8423 133.035 80.8369C133.022 80.8314 133.008 80.8286 132.994 80.8286C132.98 80.8286 132.966 80.8314 132.953 80.8369C132.94 80.8423 132.928 80.8503 132.918 80.8604C132.898 80.8808 132.887 80.9082 132.887 80.9366C132.887 80.9651 132.898 80.9924 132.918 81.0129L134.022 82.1167H132.779C132.75 82.1172 132.723 82.1287 132.704 82.1487C132.684 82.1687 132.672 82.1957 132.672 82.224C132.672 82.2525 132.683 82.2798 132.703 82.3C132.723 82.3201 132.75 82.3314 132.779 82.3314H134.022L132.918 83.4373C132.898 83.4578 132.887 83.4851 132.887 83.5136C132.887 83.542 132.898 83.5694 132.918 83.5898C132.939 83.6091 132.966 83.6199 132.994 83.6199C133.022 83.6199 133.05 83.6091 133.07 83.5898L134.172 82.4839V83.7273C134.172 83.7557 134.183 83.783 134.204 83.8032C134.224 83.8233 134.251 83.8346 134.279 83.8346C134.308 83.8346 134.335 83.8233 134.355 83.8032C134.375 83.783 134.387 83.7557 134.387 83.7273V82.4839L135.491 83.5898C135.511 83.6091 135.538 83.6199 135.567 83.6199C135.595 83.6199 135.622 83.6091 135.643 83.5898C135.663 83.5694 135.674 83.542 135.674 83.5136C135.674 83.4851 135.663 83.4578 135.643 83.4373L134.539 82.3314H135.78C135.808 82.3314 135.836 82.3201 135.856 82.3C135.876 82.2798 135.887 82.2525 135.887 82.224C135.886 82.1967 135.874 82.171 135.854 82.1522C135.834 82.1335 135.807 82.123 135.78 82.1231Z" fill="#27AE60"/>
<path d="M140.282 82.1231H139.041L140.145 81.0193C140.164 80.9989 140.175 80.9715 140.175 80.9431C140.175 80.9146 140.164 80.8873 140.145 80.8668C140.135 80.8568 140.123 80.8488 140.11 80.8433C140.097 80.8379 140.083 80.8351 140.069 80.8351C140.054 80.8351 140.04 80.8379 140.027 80.8433C140.014 80.8488 140.002 80.8568 139.992 80.8668L138.888 81.9728V80.7272C138.888 80.6988 138.877 80.6715 138.857 80.6513C138.837 80.6312 138.81 80.6199 138.781 80.6199C138.753 80.6204 138.726 80.6319 138.706 80.6519C138.686 80.6719 138.675 80.6989 138.674 80.7272V81.9728L137.572 80.8604C137.562 80.8503 137.55 80.8423 137.537 80.8369C137.524 80.8314 137.51 80.8286 137.496 80.8286C137.482 80.8286 137.468 80.8314 137.455 80.8369C137.442 80.8423 137.43 80.8503 137.42 80.8604C137.4 80.8808 137.389 80.9082 137.389 80.9366C137.389 80.9651 137.4 80.9924 137.42 81.0129L138.524 82.1167H137.281C137.252 82.1172 137.225 82.1287 137.205 82.1487C137.185 82.1687 137.174 82.1957 137.173 82.224C137.173 82.2525 137.185 82.2798 137.205 82.3C137.225 82.3201 137.252 82.3314 137.281 82.3314H138.524L137.42 83.4373C137.4 83.4578 137.389 83.4851 137.389 83.5136C137.389 83.542 137.4 83.5694 137.42 83.5898C137.441 83.6091 137.468 83.6199 137.496 83.6199C137.524 83.6199 137.551 83.6091 137.572 83.5898L138.674 82.4839V83.7273C138.674 83.7557 138.685 83.783 138.705 83.8032C138.726 83.8233 138.753 83.8346 138.781 83.8346C138.81 83.8346 138.837 83.8233 138.857 83.8032C138.877 83.783 138.888 83.7557 138.888 83.7273V82.4839L139.992 83.5898C140.013 83.6091 140.04 83.6199 140.069 83.6199C140.097 83.6199 140.124 83.6091 140.145 83.5898C140.164 83.5694 140.175 83.542 140.175 83.5136C140.175 83.4851 140.164 83.4578 140.145 83.4373L139.041 82.3314H140.282C140.31 82.3314 140.338 82.3201 140.358 82.3C140.378 82.2798 140.389 82.2525 140.389 82.224C140.387 82.1967 140.375 82.171 140.355 82.1522C140.336 82.1335 140.309 82.123 140.282 82.1231Z" fill="#27AE60"/>
<path d="M144.784 82.1231H143.543L144.647 81.0193C144.666 80.9989 144.677 80.9715 144.677 80.9431C144.677 80.9146 144.666 80.8873 144.647 80.8668C144.637 80.8568 144.625 80.8488 144.612 80.8433C144.599 80.8379 144.585 80.8351 144.57 80.8351C144.556 80.8351 144.542 80.8379 144.529 80.8433C144.516 80.8488 144.504 80.8568 144.494 80.8668L143.39 81.9728V80.7272C143.39 80.6988 143.379 80.6715 143.359 80.6513C143.339 80.6312 143.312 80.6199 143.283 80.6199C143.255 80.6204 143.228 80.6319 143.208 80.6519C143.188 80.6719 143.177 80.6989 143.176 80.7272V81.9728L142.074 80.8604C142.064 80.8503 142.052 80.8423 142.039 80.8369C142.026 80.8314 142.012 80.8286 141.998 80.8286C141.984 80.8286 141.97 80.8314 141.957 80.8369C141.944 80.8423 141.932 80.8503 141.922 80.8604C141.902 80.8808 141.891 80.9082 141.891 80.9366C141.891 80.9651 141.902 80.9924 141.922 81.0129L143.026 82.1167H141.783C141.754 82.1172 141.727 82.1287 141.707 82.1487C141.687 82.1687 141.676 82.1957 141.675 82.224C141.675 82.2525 141.687 82.2798 141.707 82.3C141.727 82.3201 141.754 82.3314 141.783 82.3314H143.026L141.922 83.4373C141.902 83.4578 141.891 83.4851 141.891 83.5136C141.891 83.542 141.902 83.5694 141.922 83.5898C141.943 83.6091 141.97 83.6199 141.998 83.6199C142.026 83.6199 142.053 83.6091 142.074 83.5898L143.176 82.4839V83.7273C143.176 83.7557 143.187 83.783 143.207 83.8032C143.227 83.8233 143.255 83.8346 143.283 83.8346C143.312 83.8346 143.339 83.8233 143.359 83.8032C143.379 83.783 143.39 83.7557 143.39 83.7273V82.4839L144.494 83.5898C144.515 83.6091 144.542 83.6199 144.57 83.6199C144.599 83.6199 144.626 83.6091 144.647 83.5898C144.666 83.5694 144.677 83.542 144.677 83.5136C144.677 83.4851 144.666 83.4578 144.647 83.4373L143.543 82.3314H144.784C144.812 82.3314 144.839 82.3201 144.86 82.3C144.88 82.2798 144.891 82.2525 144.891 82.224C144.889 82.1967 144.877 82.171 144.857 82.1522C144.837 82.1335 144.811 82.123 144.784 82.1231Z" fill="#27AE60"/>
<path d="M149.286 82.1231H148.044L149.149 81.0193C149.168 80.9989 149.179 80.9715 149.179 80.9431C149.179 80.9146 149.168 80.8873 149.149 80.8668C149.139 80.8568 149.127 80.8488 149.114 80.8433C149.101 80.8379 149.087 80.8351 149.072 80.8351C149.058 80.8351 149.044 80.8379 149.031 80.8433C149.018 80.8488 149.006 80.8568 148.996 80.8668L147.892 81.9728V80.7272C147.892 80.6988 147.881 80.6715 147.861 80.6513C147.841 80.6312 147.814 80.6199 147.785 80.6199C147.757 80.6204 147.73 80.6319 147.71 80.6519C147.69 80.6719 147.678 80.6989 147.678 80.7272V81.9728L146.576 80.8604C146.566 80.8503 146.554 80.8423 146.541 80.8369C146.528 80.8314 146.514 80.8286 146.5 80.8286C146.486 80.8286 146.472 80.8314 146.459 80.8369C146.446 80.8423 146.434 80.8503 146.424 80.8604C146.404 80.8808 146.393 80.9082 146.393 80.9366C146.393 80.9651 146.404 80.9924 146.424 81.0129L147.528 82.1167H146.284C146.256 82.1172 146.229 82.1287 146.209 82.1487C146.189 82.1687 146.178 82.1957 146.177 82.224C146.177 82.2525 146.189 82.2798 146.209 82.3C146.229 82.3201 146.256 82.3314 146.284 82.3314H147.528L146.424 83.4373C146.404 83.4578 146.393 83.4851 146.393 83.5136C146.393 83.542 146.404 83.5694 146.424 83.5898C146.444 83.6091 146.472 83.6199 146.5 83.6199C146.528 83.6199 146.555 83.6091 146.576 83.5898L147.678 82.4839V83.7273C147.678 83.7557 147.689 83.783 147.709 83.8032C147.729 83.8233 147.757 83.8346 147.785 83.8346C147.814 83.8346 147.841 83.8233 147.861 83.8032C147.881 83.783 147.892 83.7557 147.892 83.7273V82.4839L148.996 83.5898C149.017 83.6091 149.044 83.6199 149.072 83.6199C149.101 83.6199 149.128 83.6091 149.149 83.5898C149.168 83.5694 149.179 83.542 149.179 83.5136C149.179 83.4851 149.168 83.4578 149.149 83.4373L148.044 82.3314H149.286C149.314 82.3314 149.341 82.3201 149.362 82.3C149.382 82.2798 149.393 82.2525 149.393 82.224C149.391 82.1967 149.379 82.171 149.359 82.1522C149.339 82.1335 149.313 82.123 149.286 82.1231Z" fill="#27AE60"/>
<path d="M153.788 82.1231H152.546L153.65 81.0193C153.67 80.9989 153.681 80.9715 153.681 80.9431C153.681 80.9146 153.67 80.8873 153.65 80.8668C153.64 80.8568 153.629 80.8488 153.616 80.8433C153.602 80.8379 153.588 80.8351 153.574 80.8351C153.56 80.8351 153.546 80.8379 153.533 80.8433C153.52 80.8488 153.508 80.8568 153.498 80.8668L152.394 81.9728V80.7272C152.394 80.6988 152.383 80.6715 152.363 80.6513C152.343 80.6312 152.315 80.6199 152.287 80.6199C152.259 80.6204 152.232 80.6319 152.212 80.6519C152.192 80.6719 152.18 80.6989 152.18 80.7272V81.9728L151.078 80.8604C151.068 80.8503 151.056 80.8423 151.043 80.8369C151.03 80.8314 151.016 80.8286 151.002 80.8286C150.988 80.8286 150.974 80.8314 150.961 80.8369C150.947 80.8423 150.936 80.8503 150.926 80.8604C150.906 80.8808 150.895 80.9082 150.895 80.9366C150.895 80.9651 150.906 80.9924 150.926 81.0129L152.03 82.1167H150.786C150.758 82.1172 150.731 82.1287 150.711 82.1487C150.691 82.1687 150.68 82.1957 150.679 82.224C150.679 82.2525 150.69 82.2798 150.711 82.3C150.731 82.3201 150.758 82.3314 150.786 82.3314H152.03L150.926 83.4373C150.906 83.4578 150.895 83.4851 150.895 83.5136C150.895 83.542 150.906 83.5694 150.926 83.5898C150.946 83.6091 150.974 83.6199 151.002 83.6199C151.03 83.6199 151.057 83.6091 151.078 83.5898L152.18 82.4839V83.7273C152.18 83.7557 152.191 83.783 152.211 83.8032C152.231 83.8233 152.259 83.8346 152.287 83.8346C152.315 83.8346 152.343 83.8233 152.363 83.8032C152.383 83.783 152.394 83.7557 152.394 83.7273V82.4839L153.498 83.5898C153.519 83.6091 153.546 83.6199 153.574 83.6199C153.603 83.6199 153.63 83.6091 153.65 83.5898C153.67 83.5694 153.681 83.542 153.681 83.5136C153.681 83.4851 153.67 83.4578 153.65 83.4373L152.546 82.3314H153.788C153.816 82.3314 153.843 82.3201 153.863 82.3C153.883 82.2798 153.895 82.2525 153.895 82.224C153.893 82.1967 153.881 82.171 153.861 82.1522C153.841 82.1335 153.815 82.123 153.788 82.1231Z" fill="#27AE60"/>
<path d="M158.29 82.1231H157.048L158.152 81.0193C158.172 80.9989 158.183 80.9715 158.183 80.9431C158.183 80.9146 158.172 80.8873 158.152 80.8668C158.142 80.8568 158.13 80.8488 158.117 80.8433C158.104 80.8379 158.09 80.8351 158.076 80.8351C158.062 80.8351 158.048 80.8379 158.035 80.8433C158.022 80.8488 158.01 80.8568 158 80.8668L156.896 81.9728V80.7272C156.896 80.6988 156.885 80.6715 156.865 80.6513C156.845 80.6312 156.817 80.6199 156.789 80.6199C156.761 80.6204 156.734 80.6319 156.714 80.6519C156.694 80.6719 156.682 80.6989 156.682 80.7272V81.9728L155.58 80.8604C155.57 80.8503 155.558 80.8423 155.545 80.8369C155.532 80.8314 155.518 80.8286 155.504 80.8286C155.49 80.8286 155.476 80.8314 155.462 80.8369C155.449 80.8423 155.438 80.8503 155.428 80.8604C155.408 80.8808 155.397 80.9082 155.397 80.9366C155.397 80.9651 155.408 80.9924 155.428 81.0129L156.532 82.1167H155.288C155.26 82.1172 155.233 82.1287 155.213 82.1487C155.193 82.1687 155.182 82.1957 155.181 82.224C155.181 82.2525 155.192 82.2798 155.212 82.3C155.233 82.3201 155.26 82.3314 155.288 82.3314H156.532L155.428 83.4373C155.408 83.4578 155.397 83.4851 155.397 83.5136C155.397 83.542 155.408 83.5694 155.428 83.5898C155.448 83.6091 155.475 83.6199 155.504 83.6199C155.532 83.6199 155.559 83.6091 155.58 83.5898L156.682 82.4839V83.7273C156.682 83.7557 156.693 83.783 156.713 83.8032C156.733 83.8233 156.76 83.8346 156.789 83.8346C156.817 83.8346 156.845 83.8233 156.865 83.8032C156.885 83.783 156.896 83.7557 156.896 83.7273V82.4839L158 83.5898C158.021 83.6091 158.048 83.6199 158.076 83.6199C158.104 83.6199 158.132 83.6091 158.152 83.5898C158.172 83.5694 158.183 83.542 158.183 83.5136C158.183 83.4851 158.172 83.4578 158.152 83.4373L157.048 82.3314H158.29C158.318 82.3314 158.345 82.3201 158.365 82.3C158.385 82.2798 158.397 82.2525 158.397 82.224C158.395 82.1967 158.383 82.171 158.363 82.1522C158.343 82.1335 158.317 82.123 158.29 82.1231Z" fill="#27AE60"/>
<path d="M162.791 82.1231H161.55L162.654 81.0193C162.674 80.9989 162.685 80.9715 162.685 80.9431C162.685 80.9146 162.674 80.8873 162.654 80.8668C162.644 80.8568 162.632 80.8488 162.619 80.8433C162.606 80.8379 162.592 80.8351 162.578 80.8351C162.564 80.8351 162.55 80.8379 162.537 80.8433C162.524 80.8488 162.512 80.8568 162.502 80.8668L161.398 81.9728V80.7272C161.398 80.6988 161.387 80.6715 161.367 80.6513C161.346 80.6312 161.319 80.6199 161.291 80.6199C161.263 80.6204 161.236 80.6319 161.216 80.6519C161.196 80.6719 161.184 80.6989 161.184 80.7272V81.9728L160.082 80.8604C160.072 80.8503 160.06 80.8423 160.047 80.8369C160.034 80.8314 160.02 80.8286 160.006 80.8286C159.991 80.8286 159.977 80.8314 159.964 80.8369C159.951 80.8423 159.939 80.8503 159.93 80.8604C159.91 80.8808 159.899 80.9082 159.899 80.9366C159.899 80.9651 159.91 80.9924 159.93 81.0129L161.034 82.1167H159.79C159.762 82.1172 159.735 82.1287 159.715 82.1487C159.695 82.1687 159.684 82.1957 159.683 82.224C159.683 82.2525 159.694 82.2798 159.714 82.3C159.734 82.3201 159.762 82.3314 159.79 82.3314H161.034L159.93 83.4373C159.91 83.4578 159.899 83.4851 159.899 83.5136C159.899 83.542 159.91 83.5694 159.93 83.5898C159.95 83.6091 159.977 83.6199 160.006 83.6199C160.034 83.6199 160.061 83.6091 160.082 83.5898L161.184 82.4839V83.7273C161.184 83.7557 161.195 83.783 161.215 83.8032C161.235 83.8233 161.262 83.8346 161.291 83.8346C161.319 83.8346 161.346 83.8233 161.367 83.8032C161.387 83.783 161.398 83.7557 161.398 83.7273V82.4839L162.502 83.5898C162.523 83.6091 162.55 83.6199 162.578 83.6199C162.606 83.6199 162.634 83.6091 162.654 83.5898C162.674 83.5694 162.685 83.542 162.685 83.5136C162.685 83.4851 162.674 83.4578 162.654 83.4373L161.55 82.3314H162.791C162.82 82.3314 162.847 82.3201 162.867 82.3C162.887 82.2798 162.899 82.2525 162.899 82.224C162.897 82.1967 162.885 82.171 162.865 82.1522C162.845 82.1335 162.819 82.123 162.791 82.1231Z" fill="#27AE60"/>
<path d="M197.304 108.247C197.298 107.987 197.266 107.729 197.207 107.476C197.015 106.75 196.579 105.872 195.863 105.653C195.124 105.426 194.41 105.124 193.732 104.751C193.604 102.449 194.131 100.093 193.557 97.8617C193.342 97.0457 192.989 96.264 192.894 95.4287C192.776 94.3893 193.059 93.2812 192.646 92.3234C192.32 91.5675 191.604 91.035 190.834 90.7558C190.064 90.4766 189.235 90.4015 188.418 90.3263C187.389 90.2426 184.058 89.8474 182.896 90.7687C182.816 90.831 182.744 90.9032 182.681 90.9834C182.656 91.0189 182.633 91.0562 182.613 91.0951L182.602 91.1123C182.579 91.157 182.559 91.2038 182.544 91.2519C182.528 91.3046 182.516 91.3584 182.508 91.4129C182.508 91.4301 182.508 91.4473 182.508 91.4645C182.508 91.4816 182.508 91.5396 182.508 91.5783V91.6363C182.508 91.6749 182.508 91.7136 182.508 91.7544C182.508 91.7952 182.508 91.7844 182.508 91.7995C182.523 91.9927 182.551 92.186 182.551 92.3771C182.553 92.4723 182.544 92.5674 182.525 92.6606C182.453 92.9139 182.332 93.1504 182.169 93.3564L182.13 93.4122C182.107 93.4466 182.083 93.4788 182.062 93.5131C182.04 93.5475 182.023 93.5733 182.006 93.6033C181.989 93.6334 181.972 93.6527 181.957 93.6806C181.936 93.716 181.917 93.7526 181.901 93.7902C181.901 93.8116 181.877 93.831 181.869 93.8524C181.842 93.9105 181.82 93.9709 181.804 94.0328C181.754 94.2194 181.75 94.4154 181.792 94.604C181.849 94.845 181.949 95.0739 182.085 95.2805C182.139 95.3685 182.197 95.4544 182.257 95.5403L182.407 95.7443C182.379 95.9436 182.364 96.1444 182.362 96.3456C182.362 97.0181 182.514 97.6818 182.808 98.2866C183.101 98.8914 183.528 99.4217 184.055 99.8374C184.14 100.744 184.131 101.658 184.028 102.563C184.008 102.752 183.985 102.943 183.959 103.132C183.933 103.321 183.914 103.445 183.888 103.602C183.575 103.647 183.255 103.623 182.951 103.531C182.811 103.468 182.668 103.413 182.523 103.366C181.899 103.209 181.262 103.832 180.645 103.643C180.645 103.673 180.628 103.701 180.617 103.729C180.488 103.648 180.34 103.605 180.188 103.602C179.822 103.585 179.524 103.318 179.258 103.067L178.441 102.296C178.388 102.249 178.34 102.196 178.299 102.137C178.256 102.054 178.222 101.965 178.201 101.873C178.064 101.429 177.731 101.074 177.41 100.737C177.349 100.66 177.268 100.602 177.176 100.568C177.141 100.562 177.104 100.562 177.069 100.568C177.047 100.538 177.023 100.509 176.998 100.482C176.943 100.418 176.883 100.358 176.82 100.301C176.43 99.9405 176.391 99.6312 176.053 99.2275C175.757 98.8425 175.489 98.437 175.251 98.0142C175.223 97.7887 175.185 97.5568 175.137 97.3227C175.029 96.7868 174.872 96.2621 174.668 95.7551L174.239 94.8038L174.19 94.8532C173.879 94.3893 173.547 94.1359 173.249 94.196C172.749 94.2991 172.503 95.2698 172.582 96.5389L172.754 97.8274C172.754 97.8596 172.769 97.8918 172.777 97.924C172.746 98.0767 172.73 98.2321 172.73 98.3879C172.73 98.5683 172.897 98.7014 172.985 98.8625C173.126 99.0806 173.2 99.335 173.199 99.5947C173.189 99.6871 173.161 99.7751 173.157 99.8653C173.168 100.067 173.238 100.261 173.358 100.424L174.43 102.228L174.644 102.605L174.657 102.623C174.725 102.755 174.823 102.868 174.944 102.953C174.986 103.405 175.106 103.846 175.298 104.257C175.335 104.338 175.375 104.416 175.418 104.493C175.706 104.968 176.046 105.409 176.43 105.809L176.94 106.383C177.444 106.945 177.948 107.51 178.495 108.03C178.69 108.238 178.927 108.404 179.189 108.517C179.318 108.569 179.458 108.586 179.595 108.566C179.732 108.546 179.861 108.49 179.969 108.404C179.969 108.67 179.969 108.936 179.969 109.202C180.049 109.207 180.126 109.233 180.192 109.278C180.258 109.323 180.311 109.384 180.346 109.456C180.38 109.528 180.395 109.608 180.388 109.688C180.382 109.767 180.354 109.844 180.308 109.909C179.858 111.066 179.403 112.235 178.722 113.272C179.203 113.557 179.649 113.898 180.051 114.288C180.312 114.577 180.544 114.891 180.743 115.226C180.763 115.385 180.778 115.542 180.786 115.699C180.945 118.258 179.957 120.799 179.071 123.238C178.816 123.93 178.537 124.653 178.559 125.373C178.391 125.477 178.23 125.592 178.079 125.719C178.254 126.178 178.186 126.588 178.167 127.08C178.16 127.375 178.1 127.666 177.989 127.939C177.895 128.128 177.792 128.312 177.68 128.491C177.125 129.472 177.002 130.638 176.891 131.759C176.825 132.436 177.086 133.263 176.78 133.868C176.25 134.908 175.781 136.016 175.708 137.171C175.705 137.431 175.672 137.69 175.609 137.942C175.543 138.157 175.425 138.339 175.365 138.55C175.303 138.832 175.288 139.122 175.322 139.409C175.363 140.438 175.21 141.466 174.872 142.439C174.604 143.205 174.308 144.026 174.518 144.814C174.001 145.358 173.681 146.061 173.611 146.809C173.605 147 173.583 147.191 173.542 147.378C173.477 147.569 173.391 147.753 173.285 147.925C172.854 148.713 172.652 149.606 172.702 150.502C172.059 151.376 171.737 152.454 171.547 153.526C171.356 154.598 171.272 155.688 171.028 156.747C170.702 158.147 170.112 159.562 169.997 160.997C169.302 161.442 169.002 162.303 168.869 163.117C168.736 163.93 168.715 164.785 168.374 165.537C168.198 165.928 167.945 166.278 167.778 166.677C167.661 166.995 167.574 167.324 167.521 167.658C167.418 168.182 167.328 168.767 167.454 169.269C167.272 169.462 167.06 169.624 166.826 169.748C166.86 169.615 166.888 169.482 166.912 169.346C166.359 169.849 165.355 169.673 164.914 170.276C164.781 170.471 164.729 170.709 164.769 170.941C164.809 171.173 164.938 171.381 165.128 171.52C165.266 171.604 165.416 171.668 165.572 171.711C166.644 172.054 167.746 172.4 168.848 172.217C168.978 172.203 169.104 172.163 169.218 172.099C169.362 171.994 169.48 171.857 169.564 171.7C169.729 171.438 169.894 171.176 170.057 170.914C170.451 171.032 170.853 171.126 171.259 171.195C171.3 171.539 171.33 171.882 171.345 172.226C171.559 172.269 171.847 172.282 171.947 172.082C171.978 172.007 171.99 171.925 171.984 171.844C171.984 171.691 172.005 171.489 172.018 171.283H172.061C172.715 171.31 173.366 171.178 173.958 170.899C173.729 168.996 174.486 167.137 175.142 165.337C175.834 163.443 176.428 161.515 177.026 159.586C177.455 158.229 177.929 156.915 178.349 155.555C178.878 153.837 179.408 152.119 179.942 150.401C180.173 149.646 180.407 148.898 180.673 148.147C181.232 146.626 181.896 145.145 182.66 143.716C182.874 143.311 183.089 142.909 183.264 142.488C183.479 141.975 183.631 141.438 183.802 140.908C184.176 139.819 184.626 138.759 185.149 137.734C185.164 137.706 185.175 137.68 185.19 137.654C185.363 138.365 185.537 139.086 185.653 139.802C185.809 140.678 185.822 141.575 185.689 142.456C185.586 143.055 185.391 143.648 185.415 144.255C185.447 145.095 185.895 145.857 186.116 146.667C186.258 147.273 186.338 147.892 186.356 148.514C186.416 149.48 186.939 150.565 186.57 151.46C185.423 154.297 185.978 157.501 185.325 160.479C184.988 162.008 183.957 163.445 184.038 165.008C184.095 166.118 184.193 167.225 184.33 168.328C184.363 168.677 184.453 169.017 184.598 169.336C184.683 169.503 184.782 169.664 184.892 169.817C184.797 169.853 184.718 169.95 184.649 170.154C184.473 170.691 184.649 171.356 185.125 171.657C185.319 171.761 185.528 171.833 185.745 171.872C186.036 171.955 186.338 171.997 186.641 171.996C186.735 171.991 186.829 171.98 186.922 171.962C187.253 172.101 187.591 172.223 187.936 172.327C187.936 172.415 187.953 172.503 187.964 172.591C187.964 172.637 187.974 172.683 187.994 172.724C188.013 172.766 188.041 172.803 188.075 172.834C188.129 172.859 188.188 172.869 188.247 172.864H189.411C189.411 172.767 189.411 172.668 189.411 172.572C189.544 172.586 189.678 172.571 189.806 172.53C189.933 172.489 190.051 172.421 190.15 172.331C190.253 172.2 190.326 172.047 190.365 171.885C190.682 170.807 190.997 169.728 191.31 168.648C191.685 167.455 191.841 166.204 191.771 164.955C191.357 160.997 192.266 157.026 191.97 153.058C191.792 150.673 191.915 148.274 192.335 145.92C192.431 145.387 192.549 144.846 192.592 144.316C192.686 143.315 192.571 142.303 192.641 141.309C192.665 140.961 192.712 140.615 192.755 140.27C193.049 138.124 193.203 135.961 193.216 133.795C193.209 133.077 193.165 132.361 193.083 131.648C193.306 131.591 193.509 131.472 193.668 131.304C193.859 131.055 193.81 130.705 193.807 130.387C193.807 129.627 194.127 128.91 194.384 128.192C194.714 127.203 194.985 126.195 195.194 125.173C195.416 124.35 195.537 123.502 195.555 122.65C195.555 122.564 195.55 122.478 195.542 122.392C195.623 122.336 195.69 122.263 195.739 122.177C195.795 122.052 195.83 121.917 195.842 121.78C195.919 121.233 195.998 120.683 196.076 120.133C196.133 119.739 196.189 119.346 196.245 118.954L196.927 114.189C196.985 113.774 197.045 113.362 197.102 112.95L197.28 111.717C197.3 111.571 197.321 111.425 197.336 111.288C197.859 110.411 197.36 109.243 197.304 108.247ZM191.617 126.088C191.364 125.487 191.128 124.87 191.188 124.222H191.164C191.221 124.022 191.211 123.81 191.136 123.616C191.07 123.459 190.954 123.326 190.883 123.17C190.807 122.978 190.768 122.774 190.768 122.568C190.714 121.262 190.817 119.954 191.074 118.673C191.102 118.522 191.132 118.37 191.16 118.22C191.25 118.168 191.332 118.103 191.404 118.029C191.517 117.9 191.61 117.755 191.681 117.599C191.923 117.112 192.144 116.615 192.348 116.111C192.414 115.948 192.51 115.759 192.676 115.718C192.641 116.974 192.77 118.256 192.26 119.39C192.163 119.573 192.091 119.768 192.045 119.97C191.998 120.29 192.131 120.614 192.084 120.932C192.06 121.097 191.99 121.25 191.962 121.413C191.941 121.493 191.941 121.577 191.963 121.657C191.985 121.737 192.027 121.81 192.086 121.868C192.114 121.888 192.145 121.904 192.178 121.915C192.165 122.001 192.155 122.089 192.146 122.173C192.129 122.349 192.12 122.515 192.11 122.618C192.06 123.143 192.041 123.671 192.052 124.198C192.052 124.767 192.073 125.336 192.065 125.916C192.073 126.083 192.045 126.249 191.983 126.404C191.941 126.483 191.886 126.556 191.82 126.618C191.758 126.425 191.689 126.255 191.617 126.088Z" fill="url(#paint0_linear)"/>
<path d="M174.694 101.171C175.348 101.037 175.571 99.4235 175.191 97.568C174.812 95.7125 173.974 94.3172 173.32 94.4515C172.666 94.5857 172.443 96.1988 172.822 98.0543C173.202 99.9098 174.04 101.305 174.694 101.171Z" fill="#FBBEBE"/>
<path d="M184.684 170.195C184.508 170.727 184.684 171.393 185.16 171.683C185.352 171.786 185.56 171.858 185.775 171.897C186.066 171.98 186.367 172.021 186.669 172.02C187.04 172.003 187.395 171.857 187.766 171.805C187.809 171.794 187.854 171.8 187.893 171.822C187.911 171.842 187.925 171.866 187.933 171.892C187.942 171.918 187.944 171.946 187.94 171.973C187.944 172.184 187.96 172.395 187.987 172.604C187.987 172.65 187.998 172.695 188.017 172.737C188.036 172.779 188.064 172.816 188.099 172.847C188.152 172.872 188.211 172.882 188.27 172.877H189.432C189.458 171.854 189.347 170.833 189.1 169.84C189.084 169.764 189.055 169.692 189.014 169.625C188.915 169.517 188.786 169.442 188.643 169.411C188.359 169.292 188.052 169.239 187.745 169.254C187.37 169.303 187.057 169.546 186.737 169.748C186.418 169.95 185.983 170.128 185.595 170.025C185.207 169.922 184.883 169.598 184.684 170.195Z" fill="#3F3D56"/>
<path d="M167.623 169.252C167.297 169.602 166.896 169.875 166.451 170.051L166.254 170.145C166.226 170.155 166.203 170.174 166.187 170.199C166.183 170.215 166.183 170.233 166.187 170.249C166.191 170.266 166.198 170.282 166.209 170.295C166.373 170.55 166.615 170.743 166.899 170.847C167.183 170.95 167.493 170.958 167.782 170.869C167.91 170.837 168.028 170.775 168.127 170.688C168.291 170.494 168.384 170.251 168.393 169.997C168.458 169.735 168.447 169.46 168.361 169.204C168.063 168.532 167.954 168.837 167.623 169.252Z" fill="#FBBEBE"/>
<path d="M172.078 171.898C172.085 171.979 172.072 172.06 172.042 172.136C171.941 172.333 171.66 172.323 171.442 172.28C171.408 171.551 171.32 170.826 171.178 170.111C170.762 170.092 170.462 170.487 170.239 170.841L169.664 171.754C169.581 171.911 169.464 172.047 169.321 172.153C169.206 172.216 169.081 172.256 168.95 172.271C167.853 172.454 166.745 172.108 165.686 171.764C165.53 171.722 165.38 171.659 165.242 171.575C165.053 171.436 164.925 171.23 164.885 170.998C164.845 170.767 164.896 170.529 165.027 170.334C165.471 169.733 166.468 169.905 167.021 169.407C166.963 169.757 166.869 170.1 166.738 170.431C167.478 170.319 167.975 169.641 168.571 169.187C168.721 169.06 168.901 168.974 169.094 168.938C169.239 168.926 169.384 168.942 169.523 168.983C170.21 169.157 170.853 169.474 171.409 169.913C171.634 170.092 171.986 170.343 172.085 170.618C172.19 170.946 172.078 171.547 172.078 171.898Z" fill="#3F3D56"/>
<path d="M186.825 101.044C189.271 101.044 191.254 99.0578 191.254 96.6075C191.254 94.1573 189.271 92.1709 186.825 92.1709C184.379 92.1709 182.396 94.1573 182.396 96.6075C182.396 99.0578 184.379 101.044 186.825 101.044Z" fill="#FBBEBE"/>
<path d="M195.55 122.802C195.533 123.65 195.412 124.493 195.192 125.313C194.983 126.33 194.712 127.334 194.382 128.319C194.127 129.034 193.808 129.751 193.81 130.509C193.81 130.825 193.861 131.175 193.668 131.424C193.496 131.599 193.28 131.723 193.042 131.783C192.924 131.814 192.814 131.873 192.723 131.955C192.631 132.037 192.56 132.139 192.515 132.253C192.314 131.952 192.163 131.62 192.069 131.27C191.684 130.09 191.327 128.904 190.997 127.711C190.967 127.643 190.954 127.568 190.959 127.493C190.964 127.418 190.988 127.346 191.027 127.282C191.081 127.234 191.145 127.199 191.214 127.177C191.433 127.087 191.635 126.957 191.807 126.794C191.888 126.722 191.955 126.636 192.005 126.539C192.067 126.385 192.095 126.219 192.088 126.054C192.088 125.484 192.088 124.918 192.073 124.348C192.064 123.823 192.084 123.298 192.133 122.774C192.133 122.671 192.153 122.506 192.17 122.33C192.202 121.993 192.266 121.602 192.448 121.471C192.721 121.288 193.535 121.533 193.844 121.576C194.376 121.649 194.916 121.735 195.435 121.836C195.51 122.153 195.549 122.477 195.55 122.802Z" fill="#3F3D56"/>
<path d="M177.667 101.575C177.496 101.918 177.084 102.084 176.767 102.301L175.68 103.048C175.607 103.113 175.522 103.164 175.43 103.195C175.337 103.227 175.239 103.24 175.142 103.233C175.053 103.2 174.972 103.15 174.903 103.085C174.835 103.021 174.779 102.943 174.741 102.857C174.741 102.851 174.741 102.845 174.741 102.84L174.516 102.462L173.444 100.662C173.325 100.501 173.255 100.308 173.244 100.108C173.244 100.016 173.277 99.9297 173.285 99.8374C173.288 99.578 173.213 99.3238 173.071 99.1073C172.985 98.9462 172.814 98.8131 172.818 98.6327C172.81 98.3956 172.851 98.1595 172.938 97.9391C173.05 97.7351 173.212 97.5625 173.407 97.4365C173.508 97.3635 173.611 97.2948 173.718 97.2218C173.775 97.1829 173.838 97.1538 173.905 97.1359C174.083 97.0994 174.258 97.2476 174.439 97.254C175.212 97.7737 175.51 98.7572 176.119 99.4659C176.462 99.8696 176.497 100.179 176.885 100.54C176.947 100.595 177.007 100.656 177.065 100.718C177.141 100.802 177.206 100.896 177.258 100.997C177.328 101.182 177.755 101.399 177.667 101.575Z" fill="#3F3D56"/>
<path d="M185.269 101.047C185.588 101.723 185.837 102.466 185.745 103.209C185.726 103.41 185.662 103.605 185.558 103.778C185.25 104.253 184.602 104.339 184.038 104.366C183.92 104.356 183.8 104.37 183.687 104.407C183.573 104.444 183.468 104.503 183.378 104.581C183.303 104.691 183.266 104.822 183.273 104.955C183.281 105.088 183.332 105.215 183.419 105.316C183.6 105.509 183.825 105.657 184.075 105.745C184.967 106.138 185.929 106.462 186.898 106.372C187.348 106.329 187.786 106.198 188.234 106.132C188.722 106.079 189.213 106.051 189.704 106.05C190.287 106.029 190.868 105.971 191.449 105.913L192.989 105.76C193.073 105.761 193.154 105.732 193.218 105.676C193.332 105.543 193.186 105.348 193.044 105.247C192.228 104.641 191.188 104.225 190.723 103.314C190.508 102.885 190.442 102.374 190.283 101.91C190.125 101.446 189.872 101.027 189.773 100.555C189.72 100.14 189.697 99.7227 189.702 99.3049C189.708 98.8837 189.555 98.4758 189.273 98.1625C188.967 97.8769 188.523 97.8038 188.107 97.7867C187.083 97.7416 185.991 97.9864 185.265 98.7101C185.07 98.9055 184.902 99.1396 184.701 99.3157C184.499 99.4917 184.225 99.5433 184.358 99.7752C184.491 100.007 184.752 100.151 184.894 100.355C185.037 100.575 185.162 100.806 185.269 101.047Z" fill="#FBBEBE"/>
<path d="M194 107.293C193.73 108.947 193.291 110.568 192.688 112.132C192.386 112.837 192.128 113.562 191.917 114.3C191.752 114.966 191.784 115.679 191.632 116.347C191.443 117.178 191.254 118.011 191.102 118.849C190.847 120.128 190.745 121.433 190.798 122.736C190.798 122.941 190.837 123.144 190.913 123.335C190.984 123.489 191.098 123.623 191.164 123.781C191.214 123.921 191.234 124.069 191.224 124.217C191.214 124.365 191.173 124.509 191.104 124.64C190.994 124.886 190.845 125.113 190.663 125.31C188.665 125.907 186.527 125.712 184.446 125.839C182.527 125.955 180.587 126.35 178.696 126.021C178.482 125.162 178.84 124.263 179.146 123.425C180.036 120.992 181.02 118.458 180.861 115.909C180.845 115.612 180.811 115.315 180.761 115.022C180.45 113.216 180.788 111.346 181.331 109.595C181.667 108.504 181.652 107.343 181.575 106.207C181.537 105.838 181.532 105.466 181.56 105.096C181.591 104.719 181.731 104.358 181.963 104.059C181.963 104.044 181.982 104.029 181.993 104.014C182.004 103.999 182.088 104.001 182.154 104.014C182.171 104.021 182.189 104.025 182.208 104.025C182.226 104.025 182.244 104.021 182.261 104.014L182.285 103.999C182.294 103.993 182.305 103.989 182.316 103.989C182.327 103.989 182.338 103.993 182.347 103.999C182.396 104.029 182.424 104.132 182.531 104.152C182.69 104.176 182.849 104.191 183.009 104.197C183.202 104.202 183.393 104.23 183.58 104.278H183.605C183.884 104.325 184.17 104.301 184.437 104.207C184.615 104.163 184.786 104.097 184.947 104.01C184.995 103.958 185.29 103.911 185.35 103.875C185.545 103.756 185.503 103.202 185.543 102.975C185.566 102.746 185.62 102.522 185.704 102.309C185.802 102.152 185.936 102.02 186.096 101.927C186.256 101.834 186.437 101.782 186.622 101.774C186.991 101.766 187.36 101.799 187.721 101.873C188.521 101.987 189.34 101.968 190.125 102.152C190.519 102.245 190.95 102.384 191.312 102.204C191.411 102.227 191.426 102.313 191.426 102.419C191.417 102.519 191.396 102.617 191.366 102.713C191.229 103.305 191.694 103.851 192.123 104.28C192.304 104.483 192.517 104.653 192.755 104.785C192.969 104.884 193.184 104.925 193.398 105.032C193.572 105.125 193.719 105.26 193.827 105.425C193.95 105.614 194.034 105.827 194.071 106.05C194.117 106.465 194.093 106.886 194 107.293Z" fill="#3F3D56"/>
<path opacity="0.1" d="M194 107.293C193.73 108.947 193.29 110.568 192.688 112.132C192.386 112.838 192.128 113.562 191.917 114.301C191.752 114.966 191.784 115.679 191.632 116.347C191.443 117.178 191.254 118.011 191.102 118.849C191.057 118.875 191.01 118.898 190.963 118.92C190.696 119.047 190.413 119.138 190.122 119.19C189.6 119.254 189.07 119.236 188.553 119.139L185.494 118.729C184.272 118.563 182.971 118.364 182.064 117.535C181.56 117.079 181.23 116.478 180.868 115.898C180.851 115.601 180.817 115.305 180.767 115.011C180.456 113.205 180.795 111.335 181.337 109.585C181.674 108.494 181.659 107.332 181.582 106.196C181.543 105.827 181.538 105.456 181.567 105.086C181.598 104.708 181.738 104.348 181.97 104.049C182.032 104.03 182.096 104.016 182.16 104.006C182.204 103.997 182.247 103.991 182.291 103.989H182.353C182.426 103.989 182.498 103.997 182.568 104.014C182.714 104.061 182.857 104.116 182.996 104.18H183.022C183.206 104.24 183.399 104.268 183.592 104.261C183.875 104.261 184.167 104.216 184.45 104.197C184.8 104.142 185.157 104.206 185.466 104.379C185.665 104.54 185.854 104.713 186.032 104.897C186.247 105.066 186.488 105.197 186.746 105.286C188.591 105.991 190.639 105.948 192.453 105.165C192.627 105.066 192.825 105.016 193.025 105.019C193.173 105.048 193.313 105.108 193.437 105.195C193.565 105.271 193.692 105.344 193.822 105.41C193.946 105.599 194.029 105.812 194.067 106.035C194.116 106.455 194.094 106.881 194 107.293Z" fill="black"/>
<path d="M195.868 105.872C195.014 105.611 194.194 105.25 193.424 104.798C193.3 104.712 193.16 104.652 193.012 104.622C192.811 104.62 192.613 104.67 192.438 104.768C190.624 105.551 188.578 105.594 186.733 104.888C186.475 104.799 186.234 104.668 186.019 104.5C185.841 104.316 185.652 104.143 185.453 103.982C184.748 103.525 183.772 104.062 182.984 103.767C182.844 103.705 182.701 103.65 182.555 103.602C181.931 103.445 181.296 104.068 180.683 103.879C180.455 104.5 180.287 105.141 180.18 105.795C180.092 106.545 180.046 107.299 180.04 108.054C180.04 108.507 180.019 108.96 180.04 109.413C180.116 109.425 180.188 109.453 180.252 109.495C180.316 109.537 180.371 109.592 180.413 109.656C180.441 109.731 180.453 109.811 180.447 109.89C180.441 109.97 180.418 110.048 180.379 110.117C179.931 111.271 179.476 112.437 178.797 113.47C179.276 113.755 179.72 114.096 180.122 114.483C180.872 115.278 181.241 116.392 182.051 117.127C182.964 117.953 184.266 118.155 185.481 118.319L188.54 118.729C189.058 118.826 189.588 118.844 190.112 118.782C190.402 118.729 190.684 118.638 190.95 118.51C191.124 118.437 191.282 118.332 191.417 118.2C191.53 118.072 191.623 117.927 191.694 117.771C191.936 117.286 192.157 116.79 192.36 116.287C192.431 116.109 192.538 115.9 192.731 115.885C193.868 114.859 194.939 113.807 196.076 112.78C196.532 112.401 196.942 111.969 197.295 111.492C197.859 110.656 197.347 109.473 197.295 108.464C197.289 108.206 197.257 107.949 197.199 107.697C197.015 106.965 196.582 106.089 195.868 105.872Z" fill="#27AE60"/>
<path opacity="0.1" d="M177.667 101.575C177.496 101.918 177.084 102.084 176.767 102.3L175.68 103.048C175.607 103.113 175.522 103.163 175.43 103.195C175.337 103.227 175.239 103.24 175.142 103.232C175.053 103.2 174.972 103.15 174.903 103.085C174.835 103.021 174.779 102.943 174.741 102.857C174.741 102.807 174.741 102.754 174.741 102.702C174.733 102.528 174.756 102.354 174.809 102.189C174.916 101.946 175.081 101.733 175.29 101.57C175.693 101.187 176.173 100.895 176.698 100.711C176.78 100.679 176.869 100.671 176.955 100.686C176.989 100.694 177.02 100.708 177.05 100.726C177.126 100.81 177.191 100.904 177.243 101.006C177.328 101.182 177.755 101.399 177.667 101.575Z" fill="black"/>
<path d="M180.227 103.838C179.862 103.821 179.564 103.557 179.298 103.306L178.486 102.55C178.432 102.504 178.384 102.45 178.344 102.391C178.301 102.307 178.267 102.218 178.246 102.127C178.074 101.693 177.804 101.305 177.457 100.993C177.397 100.916 177.315 100.858 177.223 100.825C177.136 100.809 177.046 100.818 176.964 100.851C176.439 101.034 175.959 101.327 175.555 101.71C175.347 101.873 175.182 102.086 175.075 102.328C175.021 102.494 174.998 102.668 175.007 102.842C175.012 103.409 175.139 103.969 175.38 104.482C175.416 104.562 175.457 104.641 175.5 104.719C175.786 105.192 176.124 105.632 176.507 106.031L177.017 106.602C177.519 107.164 178.021 107.727 178.565 108.245C178.76 108.453 178.997 108.619 179.26 108.73C179.392 108.784 179.536 108.8 179.677 108.778C179.817 108.755 179.949 108.694 180.057 108.601C180.16 108.482 180.237 108.343 180.285 108.193C180.615 107.334 180.928 106.441 180.947 105.515C180.952 105.145 180.936 104.774 180.9 104.405C180.868 104.014 180.591 103.862 180.227 103.838Z" fill="#27AE60"/>
<path d="M193.218 133.903C193.206 136.063 193.052 138.22 192.759 140.36C192.716 140.706 192.669 141.051 192.646 141.397C192.575 142.4 192.691 143.407 192.596 144.404C192.547 144.943 192.436 145.477 192.341 146.004C191.922 148.352 191.8 150.743 191.977 153.122C192.273 157.08 191.366 161.04 191.777 164.987C191.827 165.755 191.785 166.525 191.651 167.283C191.574 167.753 191.463 168.216 191.319 168.67C191.006 169.745 190.691 170.819 190.375 171.891C190.338 172.054 190.265 172.207 190.161 172.338C190.052 172.433 189.923 172.503 189.785 172.544C189.646 172.585 189.5 172.596 189.357 172.576C188.12 172.538 186.956 172.003 185.833 171.481C185.704 171.43 185.584 171.357 185.479 171.266C185.245 171.024 185.265 170.641 185.162 170.321C185.059 170.001 184.78 169.701 184.621 169.372C184.491 169.061 184.412 168.731 184.388 168.395C184.245 167.296 184.148 166.192 184.096 165.084C184.015 163.525 185.044 162.09 185.383 160.574C186.026 157.593 185.481 154.398 186.624 151.57C186.984 150.676 186.461 149.594 186.409 148.632C186.391 148.011 186.31 147.394 186.169 146.789C185.955 145.982 185.503 145.222 185.47 144.384C185.447 143.779 185.642 143.188 185.743 142.591C185.876 141.713 185.864 140.818 185.706 139.943C185.593 139.222 185.419 138.5 185.245 137.796L185.207 137.875C184.684 138.898 184.235 139.957 183.863 141.043C183.691 141.569 183.541 142.106 183.327 142.617C183.151 143.046 182.934 143.439 182.722 143.843C181.961 145.267 181.298 146.741 180.739 148.256C180.473 148.999 180.24 149.759 180.008 150.505L178.42 155.658C177.991 157.014 177.521 158.323 177.101 159.676C176.507 161.609 175.913 163.525 175.223 165.414C174.58 167.208 173.815 169.065 174.044 170.959C173.453 171.237 172.804 171.369 172.151 171.344C171.046 171.246 169.962 170.982 168.936 170.562C168.526 170.409 168.102 170.238 167.825 169.9C167.349 169.318 167.467 168.466 167.611 167.725C167.665 167.391 167.751 167.063 167.868 166.746C168.031 166.351 168.297 166.001 168.464 165.61C168.8 164.86 168.822 164.012 168.955 163.198C169.088 162.384 169.384 161.525 170.078 161.083C170.196 159.653 170.783 158.242 171.107 156.844C171.352 155.785 171.433 154.696 171.626 153.623C171.819 152.549 172.13 151.475 172.777 150.606C172.726 149.709 172.928 148.816 173.36 148.029C173.465 147.856 173.55 147.672 173.615 147.481C173.655 147.294 173.678 147.105 173.684 146.914C173.755 146.168 174.073 145.467 174.589 144.923C174.374 144.14 174.672 143.321 174.94 142.561C175.278 141.591 175.43 140.566 175.39 139.54C175.357 139.253 175.371 138.963 175.431 138.681C175.491 138.466 175.609 138.283 175.678 138.077C175.739 137.825 175.771 137.566 175.774 137.306C175.858 136.145 176.327 135.049 176.846 134.012C177.155 133.407 176.893 132.584 176.957 131.91C177.069 130.789 177.191 129.629 177.746 128.652C177.849 128.467 177.961 128.291 178.053 128.1C178.165 127.827 178.225 127.536 178.231 127.241C178.25 126.749 178.319 126.341 178.143 125.884C179.29 124.928 180.855 124.66 182.347 124.596C183.839 124.531 185.348 124.666 186.808 124.349C187.237 124.252 187.666 124.119 188.118 124.054C189.145 123.904 190.187 124.138 191.201 124.37C191.13 125.014 191.366 125.633 191.629 126.232C192.659 128.659 193.199 131.266 193.218 133.903Z" fill="#33313F"/>
<path opacity="0.1" d="M188.169 134.394L185.706 139.943C185.593 139.222 185.419 138.5 185.245 137.796L185.207 137.875V137.759L186.549 134.802L188.169 134.394Z" fill="black"/>
<path opacity="0.1" d="M195.55 122.802C195.408 122.909 195.239 122.972 195.062 122.985C194.79 122.994 194.519 122.957 194.26 122.875L192.33 122.392C192.27 122.377 192.211 122.356 192.155 122.33C192.187 121.993 192.251 121.602 192.433 121.471C192.706 121.288 193.52 121.533 193.829 121.576C194.361 121.649 194.901 121.735 195.42 121.836C195.5 122.152 195.544 122.476 195.55 122.802Z" fill="black"/>
<path d="M197.182 110.025C197.223 110.203 197.28 110.379 197.315 110.56C197.372 111.002 197.357 111.451 197.27 111.889L197.094 113.117L196.918 114.352L196.239 119.104L196.071 120.281L195.835 121.924C195.824 122.061 195.79 122.194 195.733 122.319C195.662 122.436 195.564 122.533 195.447 122.603C195.33 122.672 195.198 122.711 195.062 122.716C194.79 122.725 194.519 122.688 194.26 122.607L192.33 122.122C192.246 122.106 192.165 122.074 192.095 122.025C192.036 121.967 191.993 121.895 191.971 121.815C191.949 121.736 191.949 121.652 191.97 121.572C191.998 121.409 192.069 121.256 192.092 121.093C192.14 120.775 192.007 120.449 192.054 120.133C192.1 119.932 192.172 119.738 192.268 119.555C192.911 118.132 192.538 116.469 192.757 114.923C192.954 113.706 193.467 112.563 194.245 111.608C194.725 111.005 195.276 110.462 195.887 109.993C196.127 109.806 196.509 109.421 196.811 109.348C197.199 109.267 197.117 109.754 197.182 110.025Z" fill="#27AE60"/>
<path d="M182.581 91.5266C182.439 91.9776 182.66 92.4737 182.559 92.9332C182.45 93.44 181.974 93.7922 181.839 94.3012C181.624 95.0764 182.28 95.7829 182.761 96.4271C184.54 98.8194 184.306 102.131 183.697 105.049C183.208 107.391 182.53 109.689 181.672 111.921C181.404 112.615 181.108 113.319 180.58 113.839C181.567 113.555 182.615 113.27 183.603 113.545C184.855 113.892 185.936 115.11 187.205 114.833C187.968 114.663 188.504 113.985 189.19 113.609C190.476 112.915 192.026 113.351 193.46 113.575C193.769 113.648 194.093 113.631 194.393 113.527C194.622 113.404 194.817 113.224 194.959 113.006C195.599 112.183 195.982 111.189 196.061 110.149C196.095 109.632 196.018 109.112 195.837 108.626C195.655 108.14 195.373 107.698 195.008 107.33C194.704 107.042 194.339 106.81 194.105 106.471C193.878 106.075 193.756 105.626 193.752 105.169C193.582 102.807 194.157 100.396 193.565 98.1107C193.351 97.2969 193.001 96.5173 192.907 95.6841C192.789 94.6469 193.07 93.5367 192.658 92.5875C192.335 91.8337 191.621 91.299 190.851 91.0241C190.082 90.7493 189.258 90.6719 188.442 90.5946C187.267 90.4959 183.072 89.9912 182.581 91.5266Z" fill="#33313F"/>
<g opacity="0.1">
<path opacity="0.1" d="M183.697 105.049C183.21 107.381 182.536 109.67 181.682 111.893C181.83 111.599 181.955 111.29 182.072 110.983C182.932 108.751 183.609 106.453 184.098 104.111C184.709 101.19 184.943 97.8833 183.164 95.4888C182.735 94.9176 182.184 94.2992 182.203 93.6292C182.045 93.8318 181.922 94.0598 181.839 94.3035C181.624 95.0787 182.28 95.7852 182.761 96.4294C184.54 98.8195 184.306 102.131 183.697 105.049Z" fill="black"/>
<path opacity="0.1" d="M182.585 92.7166C182.757 92.5026 182.885 92.2567 182.962 91.9929C182.995 91.6739 182.987 91.3519 182.936 91.0352C182.771 91.1596 182.647 91.331 182.581 91.5269C182.454 91.907 182.6 92.3193 182.585 92.7166Z" fill="black"/>
<path opacity="0.1" d="M195.362 112.061C195.22 112.279 195.025 112.458 194.796 112.581C194.496 112.687 194.172 112.703 193.863 112.628C192.429 112.413 190.862 111.971 189.593 112.664C188.905 113.038 188.371 113.717 187.606 113.888C186.339 114.172 185.258 112.954 184.006 112.6C183.119 112.353 182.184 112.557 181.29 112.815C181.112 113.194 180.873 113.541 180.58 113.841C181.567 113.558 182.615 113.272 183.603 113.547C184.855 113.895 185.936 115.112 187.205 114.835C187.968 114.666 188.504 113.987 189.19 113.611C190.476 112.918 192.026 113.354 193.46 113.577C193.769 113.65 194.093 113.634 194.393 113.53C194.622 113.406 194.817 113.227 194.959 113.008C195.347 112.495 195.647 111.92 195.846 111.307C195.703 111.57 195.541 111.822 195.362 112.061Z" fill="black"/>
</g>
</g>
<defs>
<linearGradient id="paint0_linear" x1="164.77" y1="131.515" x2="197.57" y2="131.515" gradientUnits="userSpaceOnUse">
<stop stop-color="#808080" stop-opacity="0.25"/>
<stop offset="0.54" stop-color="#808080" stop-opacity="0.12"/>
<stop offset="1" stop-color="#808080" stop-opacity="0.1"/>
</linearGradient>
<clipPath id="clip0">
<rect width="250" height="172.89" fill="white"/>
</clipPath>
</defs>
</svg>
