<?xml version="1.0" ?><svg enable-background="new 0 0 512 512" id="Layer_1" version="1.1" viewBox="0 0 512 512" xml:space="preserve" xmlns="http://www.w3.org/2000/svg" xmlns:xlink="http://www.w3.org/1999/xlink"><path d="M256,72.3C154.6,72.3,72.3,154.6,72.3,256h367.3C439.7,154.6,357.4,72.3,256,72.3z" fill="#FF2929"/><linearGradient gradientUnits="userSpaceOnUse" id="SVGID_1_" x1="256" x2="256" y1="256" y2="85.9999"><stop offset="0" style="stop-color:#FFFFFF;stop-opacity:0"/><stop offset="1" style="stop-color:#FFFFFF"/></linearGradient><path d="M256,86c-93.9,0-170,76.1-170,170h340C426,162.1,349.9,86,256,86z" fill="url(#SVGID_1_)"/><path d="M256,439.7c-101.4,0-183.7-82.2-183.7-183.7h367.3C439.7,357.4,357.4,439.7,256,439.7z" fill="#D1D3D4"/><linearGradient gradientUnits="userSpaceOnUse" id="SVGID_2_" x1="256" x2="256" y1="256" y2="426.0001"><stop offset="0" style="stop-color:#FFFFFF;stop-opacity:0"/><stop offset="1" style="stop-color:#FFFFFF"/></linearGradient><path d="M256,426c-93.9,0-170-76.1-170-170h340C426,349.9,349.9,426,256,426z" fill="url(#SVGID_2_)"/><path d="M439.4,246.1H72.6c-0.2,3.3-0.3,6.6-0.3,9.9s0.1,6.6,0.3,9.9h366.8c0.2-3.3,0.3-6.6,0.3-9.9  S439.6,249.4,439.4,246.1z" fill="#FFFFFF"/><circle cx="256" cy="256" fill="#F5F5F5" r="49.2"/><circle cx="256" cy="256" fill="#FF2929" r="33.4"/><linearGradient gradientUnits="userSpaceOnUse" id="SVGID_3_" x1="256" x2="256" y1="289.4479" y2="222.5521"><stop offset="0" style="stop-color:#FFFFFF;stop-opacity:0"/><stop offset="1" style="stop-color:#FFFFFF;stop-opacity:0.5"/></linearGradient><circle cx="256" cy="256" fill="url(#SVGID_3_)" r="33.4"/></svg>