<svg width="82" height="15" viewBox="0 0 82 15" fill="none" xmlns="http://www.w3.org/2000/svg">
<path d="M0.142578 14V1.20312H4.625C6.17773 1.20312 7.35547 1.50195 8.1582 2.09961C8.96094 2.69141 9.3623 3.56152 9.3623 4.70996C9.3623 5.33691 9.20117 5.89062 8.87891 6.37109C8.55664 6.8457 8.1084 7.19434 7.53418 7.41699C8.19043 7.58105 8.70605 7.91211 9.08105 8.41016C9.46191 8.9082 9.65234 9.51758 9.65234 10.2383C9.65234 11.4688 9.25977 12.4004 8.47461 13.0332C7.68945 13.666 6.57031 13.9883 5.11719 14H0.142578ZM2.7793 8.42773V11.8818H5.03809C5.65918 11.8818 6.14258 11.7354 6.48828 11.4424C6.83984 11.1436 7.01562 10.7334 7.01562 10.2119C7.01562 9.04004 6.40918 8.44531 5.19629 8.42773H2.7793ZM2.7793 6.56445H4.73047C6.06055 6.54102 6.72559 6.01074 6.72559 4.97363C6.72559 4.39355 6.55566 3.97754 6.21582 3.72559C5.88184 3.46777 5.35156 3.33887 4.625 3.33887H2.7793V6.56445ZM17.167 13.0332C16.54 13.7949 15.6729 14.1758 14.5654 14.1758C13.5459 14.1758 12.7666 13.8828 12.2275 13.2969C11.6943 12.7109 11.4219 11.8525 11.4102 10.7217V4.49023H13.9502V10.6338C13.9502 11.624 14.4014 12.1191 15.3037 12.1191C16.165 12.1191 16.7568 11.8203 17.0791 11.2227V4.49023H19.6279V14H17.2373L17.167 13.0332ZM27.0547 14C26.9375 13.7715 26.8525 13.4873 26.7998 13.1475C26.1846 13.833 25.3848 14.1758 24.4004 14.1758C23.4688 14.1758 22.6953 13.9062 22.0801 13.3672C21.4707 12.8281 21.166 12.1484 21.166 11.3281C21.166 10.3203 21.5381 9.54688 22.2822 9.00781C23.0322 8.46875 24.1133 8.19629 25.5254 8.19043H26.6943V7.64551C26.6943 7.20605 26.5801 6.85449 26.3516 6.59082C26.1289 6.32715 25.7744 6.19531 25.2881 6.19531C24.8604 6.19531 24.5234 6.29785 24.2773 6.50293C24.0371 6.70801 23.917 6.98926 23.917 7.34668H21.377C21.377 6.7959 21.5469 6.28613 21.8867 5.81738C22.2266 5.34863 22.707 4.98242 23.3281 4.71875C23.9492 4.44922 24.6465 4.31445 25.4199 4.31445C26.5918 4.31445 27.5205 4.61035 28.2061 5.20215C28.8975 5.78809 29.2432 6.61426 29.2432 7.68066V11.8027C29.249 12.7051 29.375 13.3877 29.6211 13.8506V14H27.0547ZM24.9541 12.2334C25.3291 12.2334 25.6748 12.1514 25.9912 11.9873C26.3076 11.8174 26.542 11.5918 26.6943 11.3105V9.67578H25.7451C24.4736 9.67578 23.7969 10.1152 23.7148 10.9941L23.7061 11.1436C23.7061 11.46 23.8174 11.7207 24.04 11.9258C24.2627 12.1309 24.5674 12.2334 24.9541 12.2334ZM34.2354 2.15234V4.49023H35.8613V6.35352H34.2354V11.0996C34.2354 11.4512 34.3027 11.7031 34.4375 11.8555C34.5723 12.0078 34.8301 12.084 35.2109 12.084C35.4922 12.084 35.7412 12.0635 35.958 12.0225V13.9473C35.46 14.0996 34.9473 14.1758 34.4199 14.1758C32.6387 14.1758 31.7305 13.2764 31.6953 11.4775V6.35352H30.3066V4.49023H31.6953V2.15234H34.2354ZM49.1504 11.3633H44.5273L43.6484 14H40.8447L45.6084 1.20312H48.0518L52.8418 14H50.0381L49.1504 11.3633ZM45.2393 9.22754H48.4385L46.8301 4.4375L45.2393 9.22754ZM57.3242 10.1855L56.4102 11.0996V14H53.8701V0.5H56.4102V7.97949L56.9023 7.34668L59.3369 4.49023H62.3867L58.9502 8.4541L62.6855 14H59.7676L57.3242 10.1855ZM69.1807 13.0332C68.5537 13.7949 67.6865 14.1758 66.5791 14.1758C65.5596 14.1758 64.7803 13.8828 64.2412 13.2969C63.708 12.7109 63.4355 11.8525 63.4238 10.7217V4.49023H65.9639V10.6338C65.9639 11.624 66.415 12.1191 67.3174 12.1191C68.1787 12.1191 68.7705 11.8203 69.0928 11.2227V4.49023H71.6416V14H69.251L69.1807 13.0332ZM75.8955 4.49023L75.9746 5.58887C76.6543 4.73926 77.5654 4.31445 78.708 4.31445C79.7158 4.31445 80.4658 4.61035 80.958 5.20215C81.4502 5.79395 81.7021 6.67871 81.7139 7.85645V14H79.1738V7.91797C79.1738 7.37891 79.0566 6.98926 78.8223 6.74902C78.5879 6.50293 78.1982 6.37988 77.6533 6.37988C76.9385 6.37988 76.4023 6.68457 76.0449 7.29395V14H73.5049V4.49023H75.8955Z" fill="#27AE60"/>
</svg>
