<svg width="130" height="18" viewBox="0 0 130 18" fill="none" xmlns="http://www.w3.org/2000/svg">
<path d="M2.7793 11.8818H8.37793V14H0.142578V1.20312H2.7793V11.8818ZM15.3037 13.0332C14.6768 13.7949 13.8096 14.1758 12.7021 14.1758C11.6826 14.1758 10.9033 13.8828 10.3643 13.2969C9.83105 12.7109 9.55859 11.8525 9.54688 10.7217V4.49023H12.0869V10.6338C12.0869 11.624 12.5381 12.1191 13.4404 12.1191C14.3018 12.1191 14.8936 11.8203 15.2158 11.2227V4.49023H17.7646V14H15.374L15.3037 13.0332ZM28.2412 9.33301C28.2412 10.7979 27.9072 11.9727 27.2393 12.8574C26.5771 13.7363 25.6807 14.1758 24.5498 14.1758C23.5889 14.1758 22.8125 13.8418 22.2207 13.1738V17.6562H19.6807V4.49023H22.0361L22.124 5.42188C22.7393 4.68359 23.542 4.31445 24.5322 4.31445C25.7041 4.31445 26.6152 4.74805 27.2656 5.61523C27.916 6.48242 28.2412 7.67773 28.2412 9.20117V9.33301ZM25.7012 9.14844C25.7012 8.26367 25.543 7.58105 25.2266 7.10059C24.916 6.62012 24.4619 6.37988 23.8643 6.37988C23.0674 6.37988 22.5195 6.68457 22.2207 7.29395V11.1875C22.5312 11.8145 23.085 12.1279 23.8818 12.1279C25.0947 12.1279 25.7012 11.1348 25.7012 9.14844ZM35.334 14C35.2168 13.7715 35.1318 13.4873 35.0791 13.1475C34.4639 13.833 33.6641 14.1758 32.6797 14.1758C31.748 14.1758 30.9746 13.9062 30.3594 13.3672C29.75 12.8281 29.4453 12.1484 29.4453 11.3281C29.4453 10.3203 29.8174 9.54688 30.5615 9.00781C31.3115 8.46875 32.3926 8.19629 33.8047 8.19043H34.9736V7.64551C34.9736 7.20605 34.8594 6.85449 34.6309 6.59082C34.4082 6.32715 34.0537 6.19531 33.5674 6.19531C33.1396 6.19531 32.8027 6.29785 32.5566 6.50293C32.3164 6.70801 32.1963 6.98926 32.1963 7.34668H29.6562C29.6562 6.7959 29.8262 6.28613 30.166 5.81738C30.5059 5.34863 30.9863 4.98242 31.6074 4.71875C32.2285 4.44922 32.9258 4.31445 33.6992 4.31445C34.8711 4.31445 35.7998 4.61035 36.4854 5.20215C37.1768 5.78809 37.5225 6.61426 37.5225 7.68066V11.8027C37.5283 12.7051 37.6543 13.3877 37.9004 13.8506V14H35.334ZM33.2334 12.2334C33.6084 12.2334 33.9541 12.1514 34.2705 11.9873C34.5869 11.8174 34.8213 11.5918 34.9736 11.3105V9.67578H34.0244C32.7529 9.67578 32.0762 10.1152 31.9941 10.9941L31.9854 11.1436C31.9854 11.46 32.0967 11.7207 32.3193 11.9258C32.542 12.1309 32.8467 12.2334 33.2334 12.2334ZM48.1309 8.86719L46.7598 10.3438V14H44.123V1.20312H46.7598V7.00391L47.9199 5.41309L51.1807 1.20312H54.4238L49.8799 6.88965L54.5557 14H51.418L48.1309 8.86719ZM60.8926 14C60.7754 13.7715 60.6904 13.4873 60.6377 13.1475C60.0225 13.833 59.2227 14.1758 58.2383 14.1758C57.3066 14.1758 56.5332 13.9062 55.918 13.3672C55.3086 12.8281 55.0039 12.1484 55.0039 11.3281C55.0039 10.3203 55.376 9.54688 56.1201 9.00781C56.8701 8.46875 57.9512 8.19629 59.3633 8.19043H60.5322V7.64551C60.5322 7.20605 60.418 6.85449 60.1895 6.59082C59.9668 6.32715 59.6123 6.19531 59.126 6.19531C58.6982 6.19531 58.3613 6.29785 58.1152 6.50293C57.875 6.70801 57.7549 6.98926 57.7549 7.34668H55.2148C55.2148 6.7959 55.3848 6.28613 55.7246 5.81738C56.0645 5.34863 56.5449 4.98242 57.166 4.71875C57.7871 4.44922 58.4844 4.31445 59.2578 4.31445C60.4297 4.31445 61.3584 4.61035 62.0439 5.20215C62.7354 5.78809 63.0811 6.61426 63.0811 7.68066V11.8027C63.0869 12.7051 63.2129 13.3877 63.459 13.8506V14H60.8926ZM58.792 12.2334C59.167 12.2334 59.5127 12.1514 59.8291 11.9873C60.1455 11.8174 60.3799 11.5918 60.5322 11.3105V9.67578H59.583C58.3115 9.67578 57.6348 10.1152 57.5527 10.9941L57.5439 11.1436C57.5439 11.46 57.6553 11.7207 57.8779 11.9258C58.1006 12.1309 58.4053 12.2334 58.792 12.2334ZM68.0732 2.15234V4.49023H69.6992V6.35352H68.0732V11.0996C68.0732 11.4512 68.1406 11.7031 68.2754 11.8555C68.4102 12.0078 68.668 12.084 69.0488 12.084C69.3301 12.084 69.5791 12.0635 69.7959 12.0225V13.9473C69.2979 14.0996 68.7852 14.1758 68.2578 14.1758C66.4766 14.1758 65.5684 13.2764 65.5332 11.4775V6.35352H64.1445V4.49023H65.5332V2.15234H68.0732ZM76.625 14C76.5078 13.7715 76.4229 13.4873 76.3701 13.1475C75.7549 13.833 74.9551 14.1758 73.9707 14.1758C73.0391 14.1758 72.2656 13.9062 71.6504 13.3672C71.041 12.8281 70.7363 12.1484 70.7363 11.3281C70.7363 10.3203 71.1084 9.54688 71.8525 9.00781C72.6025 8.46875 73.6836 8.19629 75.0957 8.19043H76.2646V7.64551C76.2646 7.20605 76.1504 6.85449 75.9219 6.59082C75.6992 6.32715 75.3447 6.19531 74.8584 6.19531C74.4307 6.19531 74.0938 6.29785 73.8477 6.50293C73.6074 6.70801 73.4873 6.98926 73.4873 7.34668H70.9473C70.9473 6.7959 71.1172 6.28613 71.457 5.81738C71.7969 5.34863 72.2773 4.98242 72.8984 4.71875C73.5195 4.44922 74.2168 4.31445 74.9902 4.31445C76.1621 4.31445 77.0908 4.61035 77.7764 5.20215C78.4678 5.78809 78.8135 6.61426 78.8135 7.68066V11.8027C78.8193 12.7051 78.9453 13.3877 79.1914 13.8506V14H76.625ZM74.5244 12.2334C74.8994 12.2334 75.2451 12.1514 75.5615 11.9873C75.8779 11.8174 76.1123 11.5918 76.2646 11.3105V9.67578H75.3154C74.0439 9.67578 73.3672 10.1152 73.2852 10.9941L73.2764 11.1436C73.2764 11.46 73.3877 11.7207 73.6104 11.9258C73.833 12.1309 74.1377 12.2334 74.5244 12.2334ZM92.0498 10.6426C92.0498 10.1445 91.874 9.76367 91.5225 9.5C91.1709 9.23047 90.5381 8.94922 89.624 8.65625C88.71 8.35742 87.9863 8.06445 87.4531 7.77734C86 6.99219 85.2734 5.93457 85.2734 4.60449C85.2734 3.91309 85.4668 3.29785 85.8535 2.75879C86.2461 2.21387 86.8057 1.78906 87.5322 1.48438C88.2646 1.17969 89.085 1.02734 89.9932 1.02734C90.9072 1.02734 91.7217 1.19434 92.4365 1.52832C93.1514 1.85645 93.7051 2.32227 94.0977 2.92578C94.4961 3.5293 94.6953 4.21484 94.6953 4.98242H92.0586C92.0586 4.39648 91.874 3.94238 91.5049 3.62012C91.1357 3.29199 90.6172 3.12793 89.9492 3.12793C89.3047 3.12793 88.8037 3.26563 88.4463 3.54102C88.0889 3.81055 87.9102 4.16797 87.9102 4.61328C87.9102 5.0293 88.1182 5.37793 88.5342 5.65918C88.9561 5.94043 89.5742 6.2041 90.3887 6.4502C91.8887 6.90137 92.9814 7.46094 93.667 8.12891C94.3525 8.79688 94.6953 9.62891 94.6953 10.625C94.6953 11.7324 94.2764 12.6025 93.4385 13.2354C92.6006 13.8623 91.4727 14.1758 90.0547 14.1758C89.0703 14.1758 88.1738 13.9971 87.3652 13.6396C86.5566 13.2764 85.9385 12.7812 85.5107 12.1543C85.0889 11.5273 84.8779 10.8008 84.8779 9.97461H87.5234C87.5234 11.3867 88.3672 12.0928 90.0547 12.0928C90.6816 12.0928 91.1709 11.9668 91.5225 11.7148C91.874 11.457 92.0498 11.0996 92.0498 10.6426ZM101.832 14C101.715 13.7715 101.63 13.4873 101.577 13.1475C100.962 13.833 100.162 14.1758 99.1777 14.1758C98.2461 14.1758 97.4727 13.9062 96.8574 13.3672C96.248 12.8281 95.9434 12.1484 95.9434 11.3281C95.9434 10.3203 96.3154 9.54688 97.0596 9.00781C97.8096 8.46875 98.8906 8.19629 100.303 8.19043H101.472V7.64551C101.472 7.20605 101.357 6.85449 101.129 6.59082C100.906 6.32715 100.552 6.19531 100.065 6.19531C99.6377 6.19531 99.3008 6.29785 99.0547 6.50293C98.8145 6.70801 98.6943 6.98926 98.6943 7.34668H96.1543C96.1543 6.7959 96.3242 6.28613 96.6641 5.81738C97.0039 5.34863 97.4844 4.98242 98.1055 4.71875C98.7266 4.44922 99.4238 4.31445 100.197 4.31445C101.369 4.31445 102.298 4.61035 102.983 5.20215C103.675 5.78809 104.021 6.61426 104.021 7.68066V11.8027C104.026 12.7051 104.152 13.3877 104.398 13.8506V14H101.832ZM99.7314 12.2334C100.106 12.2334 100.452 12.1514 100.769 11.9873C101.085 11.8174 101.319 11.5918 101.472 11.3105V9.67578H100.522C99.251 9.67578 98.5742 10.1152 98.4922 10.9941L98.4834 11.1436C98.4834 11.46 98.5947 11.7207 98.8174 11.9258C99.04 12.1309 99.3447 12.2334 99.7314 12.2334ZM108.31 4.49023L108.389 5.58887C109.068 4.73926 109.979 4.31445 111.122 4.31445C112.13 4.31445 112.88 4.61035 113.372 5.20215C113.864 5.79395 114.116 6.67871 114.128 7.85645V14H111.588V7.91797C111.588 7.37891 111.471 6.98926 111.236 6.74902C111.002 6.50293 110.612 6.37988 110.067 6.37988C109.353 6.37988 108.816 6.68457 108.459 7.29395V14H105.919V4.49023H108.31ZM115.666 9.1748C115.666 7.69238 115.997 6.51172 116.659 5.63281C117.327 4.75391 118.238 4.31445 119.393 4.31445C120.318 4.31445 121.083 4.66016 121.687 5.35156V0.5H124.235V14H121.941L121.818 12.9893C121.186 13.7803 120.371 14.1758 119.375 14.1758C118.256 14.1758 117.356 13.7363 116.677 12.8574C116.003 11.9727 115.666 10.7451 115.666 9.1748ZM118.206 9.35938C118.206 10.25 118.361 10.9326 118.672 11.4072C118.982 11.8818 119.434 12.1191 120.025 12.1191C120.811 12.1191 121.364 11.7881 121.687 11.126V7.37305C121.37 6.71094 120.822 6.37988 120.043 6.37988C118.818 6.37988 118.206 7.37305 118.206 9.35938ZM128.885 14H126.336V4.49023H128.885V14ZM126.187 2.0293C126.187 1.64844 126.312 1.33496 126.564 1.08887C126.822 0.842773 127.171 0.719727 127.61 0.719727C128.044 0.719727 128.39 0.842773 128.647 1.08887C128.905 1.33496 129.034 1.64844 129.034 2.0293C129.034 2.41602 128.902 2.73242 128.639 2.97852C128.381 3.22461 128.038 3.34766 127.61 3.34766C127.183 3.34766 126.837 3.22461 126.573 2.97852C126.315 2.73242 126.187 2.41602 126.187 2.0293Z" fill="#27AE60"/>
</svg>
