<svg width="100" height="100" viewBox="0 0 100 100" fill="none" xmlns="http://www.w3.org/2000/svg">
<path fill-rule="evenodd" clip-rule="evenodd" d="M85.4167 20.8333V30.3333C87.875 31.7917 89.5833 34.4167 89.5833 37.5V62.5C89.5833 65.5833 87.875 68.2083 85.4167 69.6667V79.1667C85.4167 83.75 81.6667 87.5 77.0833 87.5H18.75C14.125 87.5 10.4167 83.75 10.4167 79.1667V20.8333C10.4167 16.25 14.125 12.5 18.75 12.5H77.0833C81.6667 12.5 85.4167 16.25 85.4167 20.8333ZM52.0833 62.5H81.25V37.5H52.0833V62.5ZM18.75 79.1667V20.8333H77.0833V29.1667H52.0833C47.5 29.1667 43.75 32.9167 43.75 37.5V62.5C43.75 67.0833 47.5 70.8333 52.0833 70.8333H77.0833V79.1667H18.75ZM58.3333 50C58.3333 46.5482 61.1315 43.75 64.5833 43.75C68.0351 43.75 70.8333 46.5482 70.8333 50C70.8333 53.4518 68.0351 56.25 64.5833 56.25C61.1315 56.25 58.3333 53.4518 58.3333 50Z" fill="url(#paint0_linear)"/>
<defs>
<linearGradient id="paint0_linear" x1="10.4167" y1="12.5" x2="85.3072" y2="91.5511" gradientUnits="userSpaceOnUse">
<stop stop-color="#5EFCE8"/>
<stop offset="1" stop-color="#736EFE"/>
</linearGradient>
</defs>
</svg>
